<?xml version="1.0" encoding="UTF-8" standalone="no"?><!-- Generator: Gravit.io --><svg xmlns="http://www.w3.org/2000/svg" xmlns:xlink="http://www.w3.org/1999/xlink" style="isolation:isolate" viewBox="0 0 40 40" width="40pt" height="40pt"><defs><clipPath id="_clipPath_s9Dqca3ssy1BVaPz3cKoyZ9F1bt3KnVm"><rect width="40" height="40"/></clipPath></defs><g clip-path="url(#_clipPath_s9Dqca3ssy1BVaPz3cKoyZ9F1bt3KnVm)"><path d=" M 20 0 C 31.038 0 40 8.962 40 20 C 40 31.038 31.038 40 20 40 C 8.962 40 0 31.038 0 20 C 0 8.962 8.962 0 20 0 Z  M 20 1.623 C 30.01 1.623 38.138 9.858 38.138 20 C 38.138 30.143 30.01 38.377 20 38.378 C 9.99 38.378 1.862 30.143 1.862 20 C 1.862 9.858 9.99 1.623 20 1.623 Z  M 20 2.839 C 29.471 2.839 37.161 10.529 37.161 20 C 37.161 29.471 29.471 37.161 20 37.161 C 10.529 37.161 2.839 29.471 2.839 20 C 2.839 10.529 10.529 2.839 20 2.839 Z " fill-rule="evenodd" fill="black" vector-effect="non-scaling-stroke" stroke-width="1" stroke="rgb(255,0,0)" stroke-opacity="0.5" stroke-linejoin="miter" stroke-linecap="square" stroke-miterlimit="3" style="mix-blend-mode:screen;"/></g></svg>
