<svg version="1.0" xmlns="http://www.w3.org/2000/svg" width="1706.667" height="1706.667" viewBox="0 0 1280 1280"><path d="M576.8 1.7c1.2.2 3 .2 4 0 .9-.3-.1-.5-2.3-.4-2.2 0-3 .2-1.7.4zM701.8 1.7c1.2.2 3.2.2 4.5 0 1.2-.2.2-.4-2.3-.4s-3.5.2-2.2.4zM564.2 7.4c-14.2 3.7-38.6 11.5-37.9 12.2.2.2 7.5-.7 16.3-2.1 28.6-4.4 61.7-7.4 84.4-7.6 7-.1 8.7-.3 6.5-.9-5.5-1.6-27.8-4-42-4.5-13.6-.5-14.4-.5-27.3 2.9zM683 4.7c-7.5.4-30.3 3.3-33.7 4.2-1.7.5 4.7 1 16.2 1.4 26.8.9 56.2 4 88.5 9.2 5.6.9-11.2-5.2-24.5-9-23.3-6.5-27-6.9-46.5-5.8zM624.5 14c-19.3 5-38.8 12-29.5 10.6 7.8-1.2 67.2-1.8 81-.8 7.9.6 14.6.9 14.8.7.6-.5-23.2-8.1-34.5-10.9-12.8-3.3-18.1-3.2-31.8.4zM494.8 23.1c-11.9.8-31.2 3.4-37.2 5-6 1.6-25.8 11.2-39.3 19.1-6.8 4-12.1 7.3-11.9 7.5.2.2 5.5-1.6 11.7-4 22.6-8.7 54.4-18.5 78.9-24.2 6.3-1.5 12.6-3.1 14-3.5 2.1-.7 1.9-.8-1.5-.8-2.2.1-8.8.4-14.7.9zM515.7 23.5c-10.2 3.8-46.8 23.6-40.7 22.1 1.4-.4 9.7-2.4 18.5-4.6 18.8-4.7 41.3-9.1 61.5-12 7.9-1.2 14.6-2.2 14.7-2.4 1-.9-36.9-4.6-46.2-4.5-2.2 0-5.7.7-7.8 1.4zM745 22.6c-8.5.6-31.3 3.4-31.9 3.9-.2.3.1.5.7.5 7.8 0 54.7 8.6 76.5 14.1 8.7 2.1 16.3 3.9 17 3.9 1.9 0-13.5-8.6-28.3-15.9-12.7-6.2-13.9-6.5-21-6.7-4.1-.1-10 0-13 .2zM770.1 22.4c.2.2 6.7 1.9 14.4 3.6 25.3 5.8 55.2 14.9 81.3 24.8 5.6 2.2 10.2 3.8 10.2 3.6 0-.9-20.8-12.4-34.4-19-14.7-7.1-15.7-7.4-28.7-9.4-7.4-1.1-19.7-2.4-27.4-3-16.2-1.1-16-1.1-15.4-.6zM822.7 24.9c2.4 1.1 6 2.2 8 2.5 2.9.4 2.4.1-2.2-1.4-8.7-2.9-10.6-3.3-5.8-1.1zM454 26.1c-3.7 1.2-4.4 1.6-2 1.3 3.4-.6 10.5-3.3 8.5-3.2-.5 0-3.5.8-6.5 1.9zM570 33.4c-13.5 6.3-40.6 21.4-39.8 22.1.2.2 6.7-.8 14.5-2.1 26.8-4.4 57.6-7.3 80.1-7.5 7.4-.1 12-.5 11.5-1-2.7-2.7-47.5-15.9-53.8-15.9-1.6 0-7.3 2-12.5 4.4zM685 32c-12.2 3.1-39 12-39 12.9 0 .3 5.5.7 12.3.9 24.8.6 58.9 3.9 83 8 5.9 1 10.7 1.7 10.7 1.6 0-.2-5.4-3.5-12-7.4-16.3-9.7-36.1-19-40.2-19-1.8.1-8.5 1.4-14.8 3zM622.5 55.4c-17 8.5-34.1 18.4-33.2 19.3.3.2 6.5 0 13.8-.6 7.3-.6 24.6-1.1 38.4-1.1 13.8 0 31.1.5 38.4 1.1 7.3.6 13.5.9 13.7.6 1.4-1.4-44.8-26-51.3-27.3-2.2-.4-6.6 1.4-19.8 8zM434.5 53.1c-5.5.5-15.2 1.8-21.7 2.8-10.5 1.7-12.2 2.3-17.7 6-7.3 5-23.7 18.1-30.6 24.5l-5 4.7 10.2-5.1C391 75.6 406.5 69 434 58.9c20-7.4 20-7.5.5-5.8zM455.5 57.5c-13.1 9.4-35.2 28-36.3 30.6-.2.4 3-.6 7-2.3 15.2-6.2 50.1-17.2 72.1-22.8 25.6-6.4 25.2-5.7 4.2-8.5-6-.8-17.3-1.8-25-2.1l-14-.7-8 5.8zM792 53.1c-8.7.7-29 3.6-29.7 4.2-.1.2 5.3 1.5 12 3.1 24.6 5.6 58.2 15.8 79.1 24 5 2 9.1 3.4 9.3 3.2.9-.9-23.9-21.8-36.8-30.9l-6.7-4.7-8.8.1c-4.9.1-13.2.5-18.4 1zM848.4 58.5c20.1 7.3 43.3 17 61.1 25.6l12 5.9-6.5-6.1c-8.1-7.6-29.4-23.8-33.5-25.5-4.9-2-39.4-6.5-49-6.4-1.1.1 6.1 3 15.9 6.5zM518.7 63.3c-11.3 7.9-39.3 31.4-38.4 32.3.1.2 5.2-1 11.2-2.7 14.8-4 38.4-9.2 53-11.8 11.7-2 33.9-5.1 37.3-5.1 1.5-.1 1.5-.2.2-1-5.2-3-35.6-12.5-49.3-15.3l-6.7-1.5-7.3 5.1zM740.5 62c-14.3 3.6-38.1 11.4-39.8 12.9-.4.4 5.5 1.5 13 2.5 25.5 3.2 58.8 9.9 81.8 16.5l7 2-7.5-7.1c-10.7-10.1-37.2-31-39.2-30.8-.2.1-7 1.8-15.3 4zM888.5 59.7c.6.6 2.6 1.6 4.5 2.3 15.3 5.9 56.7 27.6 79 41.5 17.3 10.8 17.3 10.8 1.8-2.8-12.7-11.1-28.5-22.6-35.3-25.7-6.8-3.1-27-9.8-39-12.9-4.4-1.2-8.9-2.4-10-2.7-1.3-.4-1.6-.3-1 .3zM935 69.3c0 .8 7.6 5.5 12.5 7.6 2.8 1.2 4.6 1.8 4 1.3-1.4-1.2-16.5-9.3-16.5-8.9zM338.8 74.1c-2.1 1.1-3.8 2.2-3.8 2.4 0 .3 1.8-.4 4-1.5s4-2.3 4-2.5c0-.7 0-.7-4.2 1.6zM578 81.7c-14.9 10.7-40 32.5-38.2 33.1.6.2 7.9-.8 16.4-2.2 21.2-3.5 42-5.6 64.1-6.3 10.3-.3 18.7-.9 18.7-1.2 0-2.2-45.5-26.5-51.6-27.6-2.3-.4-4.2.4-9.4 4.2zM680.5 83.8c-14.2 7-35.9 19.4-37 21.2-.4.6 3.4 1 10.7 1 20.5 0 50.4 2.8 76.2 7.1 6.5 1.1 12 1.8 12.2 1.6.6-.6-12.7-13.1-21.6-20.3-11.3-9.2-23-17.4-24.9-17.4-.9 0-7.9 3.1-15.6 6.8zM391 92.6c-12.3 1.2-25.5 2.8-31.4 3.9-5.9 1.1-7.4 1.9-11.3 5.7-6.2 6-17.4 19.3-26 30.7-6.8 9.1-8.4 12.3-4.6 8.9 3.1-2.6 29.1-18.1 44.8-26.6 12.6-6.8 21.9-11.3 45.5-21.9 2.1-1 1.2-1.1-5.5-1.1-4.4.1-9.6.3-11.5.4zM406.9 100.1c-13.2 14.7-31.3 37.9-29.5 37.9.3 0 2-.9 3.8-1.9 12.8-7.6 55.8-25.8 79.1-33.6 7.1-2.4 13.1-4.5 13.3-4.8 1.2-1.1-27.9-4.6-44.6-5.3l-14.5-.7-7.6 8.4zM844 92.7c-6.5.5-27.9 3.2-32 4.1-3.2.7-2.5 1.1 12 6.1 25.1 8.6 49.5 18.8 71.2 29.7 4.8 2.4 9 4.4 9.3 4.4 1.6 0-17.5-24.3-28.1-35.8l-8.5-9.2-9.7.2c-5.3.1-11.7.3-14.2.5zM885.5 97.8c24.6 11.2 46 22.7 68.5 36.6 6.6 4.1 12 7.2 12 6.8 0-1.4-15.7-21.2-25.3-32-9.4-10.5-10.2-11.2-15-12.2-9.4-1.9-27-3.9-40.2-4.5l-13-.7 13 6zM469.3 106.8c-16.6 18.2-32.3 39-28.8 38 1.1-.4 8.6-3.1 16.7-6.2 8-3 19.9-7.2 26.5-9.2 14.9-4.5 45.9-12.4 49-12.4 4.4 0 2.3-1.8-5.9-4.8-15.3-5.7-32.1-10.5-47.4-13.7-1.7-.4-3.9 1.4-10.1 8.3zM788.5 102c-13.8 3.5-29.9 8.7-38.5 12.4-3.4 1.4-3.4 1.4-1 2 26.5 5.7 62.6 16.3 83.5 24.5 5.5 2.1 10.2 3.7 10.4 3.5.5-.5-12.6-18-19.7-26.4-6.4-7.5-18.4-20-19.2-20-.3.1-7.2 1.8-15.5 4zM328.5 103.5c-13.6 3.8-28.3 8.8-33.6 11.6-2 1-7.2 5.7-11.6 10.4-8.4 8.9-24.8 29.3-24.2 29.9.2.2 6-3.8 12.8-9 16.2-12.3 35-25 53.1-35.8 18.1-10.7 17.7-10.5 16.5-10.5-.5 0-6.4 1.5-13 3.4zM943.1 101.4c.2.2 6.3 3.8 13.4 8.1 17.1 10.2 36.9 23.5 53.3 35.6 7.2 5.5 13.2 9.7 13.2 9.4 0-.8-17.1-21.8-24.4-29.8-3.9-4.4-8.3-8.5-9.8-9.3-8.2-4.3-48.9-16.8-45.7-14zM629.9 114.3c-11.4 8.6-19.2 15-27.6 22.9-5.7 5.4-5.9 5.8-3.5 5.8 1.5 0 11.5-.5 22.2-1 13.4-.7 26.5-.7 41.9 0 12.3.6 22.5.9 22.7.7 1.4-1.4-41.6-35.8-44.6-35.6-.8 0-5.8 3.2-11.1 7.2zM527 127.2c-8.5 9.6-21.5 25.9-25.3 31.9l-1.7 2.5 18.8-4.7c20.1-5.1 40-8.9 58-11.3 6.3-.8 11.5-1.6 11.7-1.8 1.4-1.4-46.8-26.8-50.7-26.8-.9 0-5.8 4.6-10.8 10.2zM729.5 123.4c-7.1 3.4-18.2 9.4-24.5 13.1-13.4 8-13.9 7.3 7 10 15.2 2 38.3 6.6 54 10.7 18.3 4.8 17 5 12.5-1.3-12.4-17.2-31.5-38.9-34.3-38.9-1 0-7.5 2.9-14.7 6.4zM270.9 125.8c-28.4 14.4-35.1 19.4-52 39.2-5.4 6.3-16.7 21-18.4 24-1.4 2.3 1.4 0 15-12.7 16.1-14.9 30.7-27.1 50-41.5 18.4-13.6 22.2-16.7 21.4-16.7-.3-.1-7.5 3.4-16 7.7zM997.6 119.9c.5.4 7 5.2 14.4 10.6 16.7 12.1 34.1 26.2 48.9 39.7 20.3 18.4 21.8 19.7 19.4 16.3-5.9-8.4-14.9-19.6-24-29.7-9.1-10.1-11.3-12-21.9-18.4-11-6.6-35.4-19.4-37.1-19.4-.4 0-.3.4.3.9zM1044.2 141.6c2.1 2.2 5.2 4.8 7 5.8 3.9 2.2 3.3 1.5-4.7-4.9-5.8-4.7-5.8-4.7-2.3-.9zM356.5 141.1c-16.8.9-42.5 4.5-44.2 6.2-2.7 2.6-14.9 24-21.4 37.4-3.8 7.8-6.9 14.4-6.9 14.7 0 .3 6-4.1 13.3-9.7 19.9-15.3 45.6-32.3 70-46.1 4.3-2.4 5.9-3.8 4-3.5-.5.1-7.1.5-14.8 1zM375 141c-3.4 2.1-30 52.1-28.1 52.8.5.2 4.6-2.1 9.2-5.1 18.9-12.3 47.2-27.5 70.8-38 4.6-2.1 8.2-4 7.9-4.2-2.1-2.2-57.1-7.2-59.8-5.5zM891 141.1c-13.3.7-42.6 4.1-43.6 5.2-.2.2 3.1 1.9 7.4 3.7 20.4 8.8 53.2 26.3 72.7 38.8 4.4 2.8 8.1 4.9 8.3 4.7 1.3-1.2-24.4-48.9-28.1-52-.8-.7-6.4-.8-16.7-.4zM925.6 149.1c23.1 13.6 44.8 28.2 63.7 43.1 4.8 3.7 8.7 6.6 8.7 6.3 0-1.8-14-29-20.4-39.6l-7.6-12.6-7.3-1.2c-14.5-2.3-32.4-4.1-41.6-4.1h-9.5l14 8.1zM234.9 144.1c-2.3 1.9-2.3 2-.2 1 1.2-.6 2.5-1.6 2.8-2.1 1-1.6-.1-1.2-2.6 1.1zM676.9 155.4c-6.8 5.2-17.3 13.8-23.4 19.2l-10.9 9.9 19.7 1.1c22.6 1.4 35 2.7 52.5 5.5 6.8 1.1 12.6 1.9 12.8 1.7.6-.7-16.6-23.1-25.7-33.5-13.5-15.2-10.5-14.8-25-3.9zM294.5 150.6c-14.2 3.8-30.3 9.1-37.6 12.2-4.1 1.8-5.4 3.2-10.5 11.4-5.6 9-21.4 39.2-21.4 41 0 .5 5.7-4.4 12.8-10.8 20.7-19.2 55.6-47.2 67.1-54 1.7-1 3.1-2.2 3.1-2.6 0-.4-.1-.8-.2-.7-.2 0-6.1 1.6-13.3 3.5zM430.7 157.7c-6.5 10.7-21.1 39.3-20.4 40 .2.1 7.8-3.2 16.8-7.6 19.6-9.4 47-20.3 64.9-25.8 1.2-.4 1.2-.6-.3-1.5-5.7-3.1-48.2-15.8-53.1-15.8-.8 0-4.3 4.8-7.9 10.7zM583.5 156.2c-9.4 10-29.2 35.5-28.2 36.4.3.3 6.1-.4 12.9-1.5 19.5-3.2 51.6-6.1 67.3-6.1h3.9l-3.9-4.1c-9.1-9.4-39.6-33.9-42.2-33.9-.6 0-5 4.2-9.8 9.2zM830 150.1c-12.5 3.2-38 11.6-39.3 12.9-.5.4 2.9 2 7.5 3.5 15.6 5.1 43.3 16.4 58.6 24 13.4 6.6 15.2 7.2 14.6 5.2-1.2-4-15.3-31-20.7-39.7-3.4-5.6-5.9-8.6-7.2-8.7-1.1-.1-7.2 1.1-13.5 2.8zM976 148.3c0 .2 5 3.9 11 8.2 20.4 14.4 44.1 34.1 62.8 51.9 3.9 3.8 7.2 6.6 7.2 6.1 0-1.9-13.3-27.7-19.7-38.4-5.6-9.1-7.6-11.6-10.4-12.8-13.8-5.8-50.9-16.8-50.9-15zM490.6 176.2c-6.9 11.4-22.1 41.6-21.4 42.3.2.3 4.4-1.1 9.4-3.1 14.6-5.7 38.4-13.1 54.7-17 8.3-2 15.9-3.8 16.7-4.1 1.6-.5-5-4.8-20.8-13.7-8.3-4.6-30.4-15.6-31.5-15.6-.2 0-3.3 5.1-7.1 11.2zM769 172.5c-18 8.9-37.3 20.2-36.5 21.6.4.5 1.6.9 2.8.9 6.6 0 53.2 13.8 70.6 20.9 7 2.8 7.2 2.9 6.5.8-2.2-7.5-23.5-47.2-27.2-50.9-.4-.4-7.7 2.6-16.2 6.7zM228.5 175.8c-26.9 14-31.7 17.7-39.8 31.3-5.8 9.7-18.4 34.9-16.4 32.9.8-.8 3.6-4 6.2-7 15.5-17.9 40.5-42.9 59.5-59.3 3-2.6 5-4.7 4.5-4.7-.6 0-6.8 3.1-14 6.8zM1041 169.7c.1.5 2.6 2.8 5.7 5.3 6.7 5.4 44.8 43 55.7 55l7.8 8.5-7.4-14.5c-4.1-8-9.7-18.1-12.5-22.5-4.9-7.6-5.8-8.3-15.6-14.2-12.7-7.7-33.7-18.6-33.7-17.6zM630.3 198.1c-9.8 11-27.3 33.6-27.3 35.2 0 .4 3.3.5 7.3 0 9.4-1 53.1-1 62.5 0l7.4.8-4.1-6c-9.2-13.5-32.8-41.1-35.2-41.1-.4 0-5.2 5-10.6 11.1zM551.2 197.7c-6.4 9.3-27.8 50-26.8 51.1.2.1 6.4-1.3 13.7-3.2 17.9-4.6 30.8-7.2 45.9-9.2 6.9-.9 13.4-1.9 14.4-2.3 1.6-.6 0-2.4-9.5-10.8-11-9.8-19.8-16.9-30.6-24.6l-5.1-3.7-2 2.7zM718.9 202.6c-12 8.9-20.8 16.2-29.6 24.8-6.6 6.3-6.7 7.6-.6 7.6 6.1 0 37.9 5.9 53.3 9.8 8.5 2.2 15.7 3.9 15.8 3.7 1.2-1.1-18.7-39-26.3-50.3l-2.2-3.3-10.4 7.7zM317.5 197.1c-13.8 1.2-32.4 4.1-34 5.3-2.1 1.7-10.2 25.2-14.5 42.1-2.1 8.2-3.7 15.1-3.5 15.4.2.2 5.9-4.8 12.7-11 20-18.3 50.9-43.1 61.7-49.5 1.7-1 3.1-2.2 3.1-2.6 0-1-13.1-.8-25.5.3zM345.4 197.1c-3.1 3.8-18.3 53.1-16.9 54.7.1.1 6.7-4.6 14.6-10.6 16.9-12.7 33-23.4 49.4-32.9l11.9-6.8-4-.7c-21.6-3.8-53.2-5.9-55-3.7zM910.8 197.1c-8.8.7-31 3.8-31.6 4.3-.1.2 4.4 2.9 10 6.1 14.4 8.1 36 22.4 51.2 33.8 7.1 5.4 13.1 9.6 13.3 9.4 1.1-1.1-10.2-39.1-15.2-51L937 196l-8.8.1c-4.8.1-12.6.5-17.4 1zM948 202.5c19.9 14.1 42.4 32.6 59.8 49 5 4.8 9.2 8.2 9.2 7.6 0-2.6-7.3-28.8-10.9-39.1-6.7-19.2-5.9-17.8-11.6-19-9.6-2-27.1-3.9-41.5-4.6l-14.5-.7 9.5 6.8zM182.8 204.2c-12.1 9.1-25 20.2-31.4 27-6.9 7.3-22.2 33.5-28.7 49.1-2.4 5.6-.6 3.8 7.9-8.1 15.4-21.5 34.3-44.4 52.2-63.5 13.6-14.4 13.6-14.7 0-4.5zM1095 202.6c2.5 2.8 9.2 10.2 14.8 16.5 13.5 14.8 27.6 32.2 39.7 48.9 11.8 16.3 12 16.6 9.9 11.5-3.3-7.9-9.8-20.2-17.5-33.1-7.3-12.1-8.8-13.9-19-23-10.1-8.9-21.2-17.9-29.4-23.7-2.4-1.8-2.2-1.2 1.5 2.9zM405.1 209.8c-5.2 13.7-10.7 32.4-14.5 49.5-.4 1.6 0 1.5 3.2-.5 2.1-1.2 5.5-3.4 7.7-4.8 11.4-7.6 38.4-22 56.4-30.1l8.4-3.7-3.9-1.7c-11.5-4.8-32-11.2-48.1-14.9l-6.2-1.4-3 7.6zM860.5 205.5c-7.1 1.8-19.1 5.4-26.5 8-7.4 2.6-14.3 4.9-15.2 5.2-2.8.8-2.1 1.7 3 3.7 13.7 5.5 45.2 22.2 61.1 32.3 4.6 3 8.5 5.2 8.7 5 1.6-1.5-15-55.7-17.5-57.1-.3-.2-6.4 1.1-13.6 2.9zM263 206.5c-11.6 3.1-29.1 8.9-36.7 12-3.6 1.5-4.3 3-9.9 19-3.5 9.9-11.6 39.6-11 40.2.1.2 3.6-3.6 7.7-8.5 10.5-12.4 39.4-41.7 52.9-53.5 6.3-5.5 12.2-10.7 13-11.4 2.4-2.1-2.1-1.5-16 2.2zM1015.1 213.6c18.9 16.6 44.2 42.3 58.2 59.3 1.5 1.8 3 3.2 3.2 2.9 1.3-1.3-14.8-53.6-17.2-55.8-2.6-2.4-41.2-14.6-52.7-16.6-3.8-.7-3.5-.3 8.5 10.2zM200.8 230.3c-21.6 10.9-32.2 17.6-34.2 21.5-3.8 7.3-17.5 52.6-16.3 53.9.2.2 1.7-1.6 3.2-3.9 11.1-17 34.9-46.5 54.8-68 6.5-7 11.6-12.8 11.3-12.8-.2 0-8.7 4.2-18.8 9.3zM466.6 224.4c-6.4 15.4-17.4 54.6-15.2 54.6.2 0 6.3-2.9 13.7-6.4 15.1-7.3 29.3-13.1 45.2-18.7 6-2 11.1-3.9 11.3-4.2 1.2-1.2-49.5-28.7-53-28.7-.3 0-1.2 1.5-2 3.4zM802 226.3c-14 6.5-41 21.8-41 23.2 0 .2 3 1.3 6.8 2.5 12.8 4.2 39.7 15.3 51.5 21.2 6.6 3.2 12.1 5.7 12.3 5.5 1.5-1.5-15.6-57.7-17.5-57.7-.3 0-5.8 2.4-12.1 5.3zM1072.1 230.8c17.7 18.5 37.3 42.3 51.6 62.4 4.2 6 7.8 10.6 8 10.5 1-1-8.1-31.7-13.9-46.9l-2.9-7.8-9.2-5.7c-8.9-5.5-39.3-21.3-41.1-21.3-.4 0 2.9 4 7.5 8.8zM1132.6 228.8c1 1.8 3.6 4.9 5.8 7 3.8 3.5 3.8 3.5-.9-2.3-6.4-8-7.1-8.6-4.9-4.7zM146 233c-.6 1.1-.8 2-.6 2 .3 0 1-.9 1.6-2 .6-1.1.8-2 .6-2-.3 0-1 .9-1.6 2zM599.2 238.7c-6.8 9.8-27.1 48.7-26 49.9.3.2 4.2-.3 8.9-1.1 14.1-2.5 34.8-4.5 46.2-4.5 8 0 10.7-.3 10.7-1.3 0-3.1-34.5-45.7-37-45.7-.5 0-1.7 1.2-2.8 2.7zM673 243.7c-11.7 12.5-30 36-30 38.4 0 .5 5 .9 11 .9 11.5 0 32.8 2 46.6 4.4 4.3.8 8.1 1.2 8.3 1 1.7-1.6-25.5-52.3-28.1-52.4-.3 0-3.9 3.5-7.8 7.7zM522.5 252.7c-3.5 9-10.2 30-12.5 39.3-4.5 18.4-4.4 17.4-2.3 16.5 12.1-5.1 39-13.5 54.6-17.1 4.2-1 7.6-2.1 7.5-2.5-1.3-3.3-43.3-37.9-46.1-37.9-.3 0-.8.8-1.2 1.7zM752.4 255.2c-13.6 9.6-39.4 31.7-39.4 33.8 0 .4 2.7 1.3 6 1.9 9.8 2 35.9 9.7 46.8 13.9 8.5 3.3 10.2 3.7 10.2 2.3 0-5.7-14.3-52.6-16.9-55.4-.4-.4-3.4 1.2-6.7 3.5zM146.5 264.6c-14.6 11.6-24.8 21.5-28.1 27-3.8 6.5-16.4 45.7-15.1 47 .2.3 2.8-3.7 5.8-8.8 11.9-20.8 27.9-44.7 43.1-64.6 4.3-5.6 7.5-10.2 7.1-10.2-.4 0-6.2 4.3-12.8 9.6zM308.5 256.7c-19.1 1.1-42.4 4.6-43.6 6.4-1.8 3-5.9 37.9-5.9 50.5v7.4l10.4-11.7c10.7-12.2 32.1-33.4 46.1-46l8-7.2-5 .1c-2.7.1-7.2.3-10 .5zM932.9 257.1c-11.3.8-33.2 3.7-36.2 4.8-1.6.6-1.2 1.2 2.5 3.6 12.9 8.4 34.2 25.7 53.7 43.4l8.1 7.3v-6.8c0-11.6-3.9-47.4-5.7-52-.6-1.6-4.8-1.6-22.4-.3zM966 261.7c18.2 16.3 34.9 32.9 51.8 51.8l6.2 7-.6-10c-.7-13.1-2-25.6-4-38.1l-1.7-10.2-5.6-1.1c-8.3-1.6-29.1-3.9-41.6-4.6l-11-.6 6.5 5.8zM1133.8 268.8c11.5 15.2 31.2 44.9 38.9 58.5 3.1 5.4 5.8 9.6 6 9.3.7-.6-6.3-24.3-10.9-36.6l-4.1-11.1-8.6-7.9c-8.8-8.1-26.2-22.4-29.3-24.1-.9-.5 2.7 4.9 8 11.9zM245.7 266.6c-14.2 3.8-28.6 8.5-36.2 11.9l-5.1 2.2-1.7 10.9c-2.5 16.5-3.9 32-3.5 41.2l.3 8.2 7.6-10.8c13.1-18.5 28-36.7 46.8-57.1 10.9-11.8 11.1-11.7-8.2-6.5zM389.5 265.2c-2.6 11.4-5.9 45.3-5.3 54l.3 4.7 9-7.1c10.1-7.9 36.4-25.5 46.7-31.2 3.7-2.1 7-4.1 7.3-4.6 1-1.6-26.9-11.2-45.2-15.6-12.5-2.9-12.1-2.9-12.8-.2zM884.5 264.2c-12 3-33.2 9.4-41.3 12.5l-9.2 3.6 14.1 8.3c15 8.9 24.6 15.4 40.1 27.1 5.3 4 9.8 7.3 10 7.3.9 0-1.4-32.7-3.1-44.6-1.2-7.6-2.1-14.2-2.1-14.7 0-.9-3.5-.7-8.5.5zM1027.1 270.8c16.4 17.1 35.5 40.3 48.8 59.1 4 5.5 7.4 10.1 7.8 10.1 1.4 0-1.9-36.9-4.7-53.2l-1.2-6.6-9.3-3.6c-13.5-5.1-43.1-13.6-47.7-13.6-.6 0 2.3 3.5 6.3 7.8zM449.6 283.8c-2.9 13.7-6.1 46.6-5.4 54.4l.3 3.6 8-4.9c11.2-7 31.4-17.8 41.7-22.5 4.8-2.1 8.8-4.2 8.8-4.6 0-1.9-40.5-24.3-50.1-27.7-2.5-.9-2.8-.7-3.3 1.7zM813.4 289.9c-9.8 5-21.7 11.5-26.3 14.5l-8.5 5.4 5.5 2.3c9.4 3.9 33.7 16.7 43.6 22.9 5.2 3.3 9.8 6 10.1 6 2.1 0-3.4-56.9-5.7-59.3-.4-.4-8.8 3.3-18.7 8.2zM191 286.4c-10.7 5-22.3 11.3-33.7 18.4l-7.8 4.8-1.2 5.9c-3.2 15.8-6.5 56.6-4.3 53.5.6-.8 4.2-7.1 8.2-14 9-16 25.1-40.2 36.7-55.5 13.2-17.3 13.3-17.5 12.4-17.5-.4 0-5.1 2-10.3 4.4zM1084.8 286.7c12.2 14.8 30.2 40.9 43.5 63.3 4.8 8 9.2 15.2 9.7 16 2.3 3.3-.7-35.8-4-51.5-1-5-1.1-5.1-10.8-11-9.5-5.9-39.7-21.5-41.5-21.5-.5 0 .9 2.1 3.1 4.7zM570.6 294.5c-5.2 12.3-16.7 52.8-15.4 54.1.3.2 4.9-.8 10.4-2.1 12.4-3.2 35.4-7.5 39.9-7.5 1.9 0 3.6-.4 3.9-.9 1.1-1.7-16.5-24.7-31.1-40.5l-6.2-6.8-1.5 3.7zM703 298.7c-7.9 8.6-19.3 22.7-25.9 32-4.8 6.9-5 7.3-2.8 7.7 1.2.2 7.6 1.2 14.2 2.1 6.6 1 18.1 3.3 25.5 5.1 7.4 1.9 13.6 3.4 13.6 3.4 1 0-9-36.7-11.9-44-.7-1.9-2.2-5.6-3.1-8.3-1-2.6-2.1-4.7-2.6-4.7-.4 0-3.6 3-7 6.7zM106.6 302.1c-8.7 9.7-24.9 30.7-27.3 35.3-4.8 9.2-18.4 52.8-16.9 54.3.3.3 2-2.8 3.7-6.8 7.7-17.5 25.7-51.9 37-70.7 6.7-11.2 12-20.4 11.8-20.6-.2-.2-4 3.7-8.3 8.5zM1169.3 296c.8 1.4 6.3 10.6 12.2 20.5 10.9 18 26.4 47.6 34.4 65.5 5 11.2 4.9 8.3-.5-10.2-5.2-18.1-11-32.6-15.9-39.8-8.1-11.9-34.6-43.4-30.2-36zM505.6 311.8c-1.7 2.7-5.6 39.3-5.6 52.5v7.7l9.1-4.6c10-5 27.3-12.2 35.9-14.9 3-1 5.9-2.1 6.3-2.5.9-.8-11.7-12.9-22.7-21.9-11.7-9.5-22.5-17.1-23-16.3zM770 315.8c-8 5.7-24.2 18.9-33.5 27.5l-6.9 6.4 6.9 2.3c10.7 3.5 25 9.3 35.8 14.5 5.4 2.6 10 4.5 10.3 4.3 1.3-1.4-3.1-48.7-5.4-57l-.7-2.7-6.5 4.7zM135.5 319.7c-11.2 8.5-26.2 21.2-31.7 27-3.4 3.5-3.7 4.5-5.2 14.3-2.4 16.5-3.6 29.2-3.5 38.2l.1 8.3 2.6-6c9.8-22.5 30.2-60.7 42.7-80 3.1-4.8 5.5-8.9 5.3-9-.2-.2-4.8 3.1-10.3 7.2zM1146.9 328.2c11.8 19.2 23.5 40.9 32.7 60.8 4.2 9.1 7.8 16.7 8.1 17 1.3 1.3-2.2-35.7-4.7-50.1l-1.1-6.5-11-9.9c-10.4-9.4-30.6-25.5-32.1-25.5-.3 0 3.3 6.4 8.1 14.2zM290.9 320.2c-5.2.5-14.5 1.6-20.5 2.6l-10.9 1.7.2 14c.1 13.7 3.6 44.2 5.2 45.8.5.4 3.8-3.5 7.5-8.7 10.3-14.4 26.2-33.9 37.6-45.9l10.2-10.7-9.9.1c-5.4.1-14.1.6-19.4 1.1zM321.6 328.7c1.1 20.4 4.9 51.4 6.3 51.2.3 0 2.3-2.1 4.5-4.7 8.4-10.3 25.6-28 37.3-38.5 8.4-7.5 12-11.3 11.1-11.8-3.5-1.9-39-5.9-52.5-5.9h-7.2l.5 9.7zM933.5 320.1c-11.3 1.1-29.6 3.9-31.3 4.8-.8.5 1.5 3.1 7 7.8 9.1 7.8 33.9 32.8 40.8 41.1 3.1 3.8 4.6 4.9 5.1 3.9 1.4-2.5 5-31 5.6-44.9l.6-13.8-9.4.1c-5.2.1-13.4.5-18.4 1zM969.4 325.2c18.8 20.8 36.5 42.6 45.1 55.7l2.9 4.4.8-2.9c3.1-12.7 6.8-56.2 4.7-57.4-2.9-1.9-38.9-6-51.6-6h-7.6l5.7 6.2zM384 332.3c0 11.9 3.6 44.9 5.6 51.9.4 1.4 2.6-.1 10.7-7.5 12.9-11.7 17.7-15.7 31-25.5l10.7-8-4.8-2c-11.6-4.9-30.2-10.7-46.9-14.6l-6.3-1.4v7.1zM884.5 328.5c-12.9 3.3-30.9 9.1-39.4 12.7l-4.4 1.8 9.9 7.3c12.1 9 26.8 21.1 35.2 29.1 3.4 3.2 6.4 5.7 6.6 5.5 2.3-2.3 7.9-58 5.9-59.2-.4-.2-6.6 1-13.8 2.8zM240 329.1c-12.6 3.3-28.8 8.5-36.2 11.8l-4.8 2v10.3c0 10.5 1.9 29.8 4 42.1l1.2 6.7 8-13.7c10.1-17.2 21.3-34 33.4-50 6.5-8.6 8.8-12.3 7.6-12.3-.9.1-6.9 1.4-13.2 3.1zM1029 326.4c0 .2 4.2 6 9.4 12.9s12.3 16.8 15.7 21.9c6.2 9.1 22.3 35.7 23.2 38.1.2.7.7 1 1 .7 1.5-1.4 5.7-39.8 5.7-52.1 0-4.7-.2-4.9-3.7-6.4-8.2-3.5-24.5-8.8-36.8-12.1-13.1-3.4-14.5-3.7-14.5-3zM1202.9 332.3c1.9 4.4 8 14.7 8.1 13.6 0-.9-9.1-17.9-9.5-17.9-.3 0 .4 1.9 1.4 4.3zM665.1 349c-5.8 9.5-21.1 39.4-21.1 41.4 0 1 3.3 1.5 12.8 2 7 .3 16.5 1.3 21.2 2 4.7.8 8.7 1.2 8.9 1 1.3-1.2-10.2-40.8-14.7-50.9l-1.8-3.9-5.3 8.4zM178.3 352.4c-9.2 4.7-21 11.1-26 14.2l-9.3 5.8v4.7c0 12.8 4 49.2 6 54.3.8 2.1.8 2.1 1.6.1 6.6-17 26.4-55.1 39.5-75.8 3.8-6 6.9-11.1 6.9-11.3 0-1.1-3.2.3-18.7 8zM444.4 356.2c.7 12.9 2.9 32 4.9 42.5l1.2 6.2 6.5-5.1c7.7-6 27.8-19.5 34.9-23.4 2.8-1.5 5.1-3.1 5.1-3.5 0-2-48.7-28.9-52.4-28.9-.5 0-.6 5-.2 12.2zM819.3 353c-9.8 4.9-21.5 11.4-26.1 14.3l-8.3 5.4 10.4 6.2c9 5.3 24.3 15.7 33.9 23.1 2.1 1.7 2.9 1.8 3.3.8 2.5-7 7-58.8 5.2-58.8-.4 0-8.7 4-18.4 9zM554 352.1c0 .2-.5 3.1-1 6.4-2.1 12.2-4 32.3-4 41.7v9.6l7.3-2.8c4-1.5 12.5-4.2 18.8-6 6.2-1.7 12.5-3.5 13.8-3.9 2.2-.6 2.1-1-5.5-11.1-10.6-14.4-29.4-36-29.4-33.9zM720.9 359.2c-13.2 14.8-29.8 36.3-28.7 37.3.2.2 4.8 1.5 10.4 2.9 5.5 1.4 14.7 4.2 20.3 6.1 5.7 2 10.6 3.4 10.9 3.1 1.4-1.5-3.9-53.9-5.7-55.9-.4-.4-3.7 2.5-7.2 6.5zM85.3 366.2c-10.1 11.7-20.7 25.7-23.4 30.9-2.5 4.9-5.6 25.4-6.4 41.7-.3 6.4-.2 11 .1 10.2.4-.8 3-8.3 6-16.5 6.6-18.8 16.1-41.7 25.2-60.8 3.9-8.1 6.9-14.7 6.8-14.7-.2 0-3.9 4.2-8.3 9.2zM1197.9 375.1c8.5 17.7 17.7 39.9 24.8 59.9 2.4 6.8 4.6 12.6 4.7 12.8 1.2 1.2-2.8-36.1-4.8-44.9-.9-4.1-2.9-7.9-7.3-14-6.5-8.9-21-26.6-23.7-28.8-.8-.7 2 6 6.3 15zM131.5 380.7c-9.5 7-16.1 12.4-28.9 23.8l-7.8 7 .5 16.5c.5 14 3.8 42.4 5 43.7.2.2 3.2-7.9 6.7-17.9 7.1-20.9 17.9-46.7 27.5-65.8 3.7-7.3 6.5-13.4 6.3-13.6-.2-.1-4.4 2.7-9.3 6.3zM500 380.7c0 12.5 4.2 48.9 5.8 50.5.4.3 4.1-1.4 8.2-3.9 4.1-2.4 12.5-6.9 18.5-9.9 6.1-3 11.1-5.9 11.3-6.3.6-1.9-40.3-36.1-43.1-36.1-.4 0-.7 2.6-.7 5.7zM772.8 381.2c-9.3 6.8-17.9 14-28.2 23.4l-6.9 6.3 12.9 6.5c7.1 3.6 15.8 8.3 19.4 10.5 3.6 2.1 6.6 3.8 6.7 3.7.8-.8 4.3-27.7 4.8-36.6.3-5.8.8-12.6 1.1-15.3.3-2.6.1-4.7-.5-4.7-.5 0-4.7 2.8-9.3 6.2zM306.5 382.1c-10.4.7-40.4 4.5-41.2 5.2-.3.4 3.9 17.5 6.8 27.7 3.3 11.1 9.7 29 10.9 30.3.3.4 3-3.4 5.9-8.5 7.4-13 18.8-30.3 28.7-43.4 4.6-6.1 8.4-11.4 8.4-11.8 0-.7-1.2-.6-19.5.5zM328 382c0 5.2 10.9 41.6 16 53.5l2 4.7 7.4-10.3c7.6-10.8 16.2-21.2 27.9-34.1 3.7-4.2 6.7-7.8 6.7-8 0-1.1-24.6-4.5-38-5.3-5.8-.3-13.1-.8-16.2-1.1-4-.3-5.8-.1-5.8.6zM940.5 381.7c-16.7 1-44.1 4.5-45.3 5.8-.3.3 2.3 3.4 5.7 7.1 8.7 9.3 20.2 23.2 28.7 34.7l7.3 9.9 1.6-3.9c5.4-12.9 15.5-46.7 15.5-52.1 0-2.4.1-2.4-13.5-1.5zM957 381.5c0 .2 3.7 5.3 8.2 11.2 8.9 11.8 22.8 32.7 29.7 44.9l4.3 7.8 1.4-2.6c4-7.7 17.6-54 16.2-55.3-1.9-1.8-59.8-7.7-59.8-6zM391 389.7c0 7.3 15.6 56.3 17.9 56.3.4 0 1.7-1.3 2.9-2.9 3.6-5 19.3-21 28.4-29.2l8.8-7.9-3.8-1.6c-7.8-3.3-30.1-10.6-39.2-12.8-15.8-3.9-15-3.8-15-1.9zM885.5 389.2c-16.1 3.9-48.3 14.3-50.1 16.1-.3.2 8.4 9.3 19.2 20.1 10.8 10.8 19.8 19.5 20 19.4 2.4-2.5 17.4-50.9 17.4-56.4 0-.6-1.9-.4-6.5.8zM1020 388.6c0 .3 1.3 2.4 2.8 4.7 9 13.2 24.3 41.5 33.3 61.7l3.8 8.5 1.5-3.5c5.3-12.9 15.6-47.5 15.6-52.7 0-1.8-1.4-2.7-7.8-5.2-9.7-3.7-27.9-9.2-39.5-12-9.9-2.3-9.7-2.3-9.7-1.5zM640 399.6c-5.5 14.4-12 36.3-15.4 51.4l-.5 2.5H641c12.6 0 17-.3 17-1.2 0-4.5-14.6-53.3-16.6-55.2-.2-.2-.8.9-1.4 2.5zM593.7 403.6c-1.9 6.6-4.5 31-4.9 46.4-.3 8.9-.1 10.4 1.2 10.1 3.2-.7 23.7-5 27.8-5.8l4.2-.8-5.3-11.6c-5.2-11.2-17.4-33.5-20.8-38.1-1.6-2-1.7-2.1-2.2-.2zM681.7 411.8c-6 10-20.7 39.1-20.7 41 0 .6 2.1 1.4 4.8 1.7 2.6.4 9.8 1.8 16 3.1 6.3 1.3 11.6 2.4 11.9 2.4.9 0-.6-27.2-2.2-39-2-15.3-2.7-19-3.4-19-.3 0-3.2 4.4-6.4 9.8zM51.2 413.4c-3.4 5.7-9.4 16.9-13.2 24.8-6.3 13.1-7.2 15.7-9 26.4-3.2 19.8-5.3 49.3-3 43.9.5-1.1 2.7-9.7 4.9-19 5.7-23.3 13.1-47.7 20.8-68.4 3.5-9.5 6.2-17.5 6-17.7-.2-.2-3.1 4.3-6.5 10zM1226 405.6c0 .6 1.2 3.9 2.6 7.4 4.1 10.2 13.2 37.4 17.5 52.5 4.3 15.3 9.9 37.8 9.9 40 0 .7.4 1.6.8 1.9 1.6 1-1-29.4-3.8-45.1-1.5-8.6-3-12.6-8.8-24.5-6.9-14.4-18.2-34.2-18.2-32.2zM185.9 414.1c-21.5 10.6-35.9 19.5-35.9 22.2 0 5.9 11.4 44.8 15.2 52.2 1.4 2.6 1.6 2.4 6.8-12.7 6.2-17.9 13.7-35.9 22.6-54.7 3.5-7.4 6.3-13.6 6.1-13.8-.2-.2-6.9 2.9-14.8 6.8zM451 407.7c.1 4.3 11.2 41.3 15.6 51.8l1.5 3.6 7.7-7.1c4.2-4 11.9-10.3 17-14.2 5.2-3.9 9-7.4 8.5-7.9-2.3-2.3-24.3-14.8-36-20.5-13.5-6.6-14.3-6.9-14.3-5.7zM817 413.5c-13.7 6.8-36 19.5-36 20.6 0 .3 4.1 3.6 9 7.4 5 3.7 12.3 9.8 16.4 13.6 4.1 3.8 7.6 6.9 7.9 6.9 2.3 0 17.7-50.5 16.5-54.1-.2-.5-6.4 2-13.8 5.6zM1082 407.5c0 .3 2.5 5.5 5.5 11.5 7.8 15.5 16.5 36.3 23.2 55 3.6 10.4 5.9 15.6 6.5 14.8 2.9-4.5 16.9-53.1 15.6-54.3-4.3-4.2-50.8-28.8-50.8-27zM82.5 425c-4.8 5.5-13.1 15.5-18.2 22.2l-9.4 12.3.5 15.5c.4 14.6 2.9 38 4.5 42.2.5 1.3 1.6-2 3.5-10.4 6.2-26.9 15.9-59 24.8-81.2 2.1-5.4 3.7-10 3.5-10.2-.1-.2-4.3 4.1-9.2 9.6zM549.3 430c.7 14.9 4.2 41.8 5.6 43.3.5.5 3.5-.5 6.7-2.1 3.3-1.6 10-4.4 14.9-6.3 5-1.8 9.2-3.4 9.4-3.6 1.2-.8-27.7-37.3-34.4-43.3l-2.8-2.5.6 14.5zM724 425.6c-12.4 14-28.1 34.9-26.9 35.8.2.1 4 1.5 8.4 3 4.4 1.6 11.1 4.4 14.9 6.3 3.7 1.9 7 3.3 7.2 3.1.9-1 4.5-26.6 5.4-38.8 1.2-16.2 1.2-19 .3-19-.5 0-4.6 4.3-9.3 9.6zM1192.5 418.5c.4 1.1 2.2 5.9 4 10.7 6.3 16.3 15.4 45.7 20.7 67 4.5 18.1 5.4 20.6 6 17.7 1.3-6.3 3.7-28.3 4.4-40.6l.7-12.2-4.8-6.7c-11.4-15.9-32.5-40.4-31-35.9zM141.4 440.2c-9.7 6.9-23.9 18.5-32.5 26.6-9.4 8.8-9.1 6.2-3.2 28.2 4.2 16 12.3 38.5 13.3 37.3.4-.4 2.4-8.1 4.4-16.9 4.3-19.2 11.7-43.3 19.3-63.7 3-8.1 5.3-15 5.1-15.3-.3-.2-3.1 1.5-6.4 3.8zM1135 436.4c0 .2 2.7 7.7 6 16.5s7.6 21.4 9.6 27.8c4.5 14.9 12.4 45.9 12.4 49 0 4.5 1.7 2.1 5.3-7.7 4.4-12 9-27.4 11.6-39.2l1.9-8.8-10.7-9.5c-14.6-13-36.1-29.7-36.1-28.1zM765 445.1c-11.1 8.3-20.1 15.9-28.7 24.3l-6.2 6 6.7 4c3.7 2.2 10 6.4 14 9.4 4.1 2.9 7.5 5.2 7.7 5 .1-.2 2.4-6.1 5-13.3 4.9-13.7 12.8-42.5 11.7-42.5-.4 0-5 3.2-10.2 7.1zM324.3 442.1c-11.9.8-39.1 4.4-40 5.3-1.3 1.2 10.2 24.2 21.5 42.8 6 10.1 8.2 12.6 8.2 9.5 0-2.2 16.7-35.1 23.4-46 3.6-6 6.6-11.3 6.6-11.8 0-1-2.1-1-19.7.2zM347 442.7c0 .5 3.6 8.1 7.9 16.9 8.5 17 19.8 35.7 21 34.9.5-.2 3.1-4.4 6-9.3 5-8.9 18-27.9 22.7-33.5 3.7-4.4 4.8-4-18.1-7.3-13.4-1.9-39.5-3-39.5-1.7zM907.1 443.1c-11.8 1.1-30.1 4-30.6 4.8-.2.4 1.2 2.7 3.2 5.1 6 7.6 15.8 22 21.8 32.3 5.1 8.6 5.9 9.5 7 8 6.7-9.8 19.1-32.6 25-45.8l2.4-5.5-10.2.1c-5.6.1-14 .5-18.6 1zM939 442.6c0 .3 1.4 2.5 3 5 5.1 7.3 19.2 33.3 23.5 43.2 2.2 5 4.4 9 4.9 8.9 2.4-.8 25.3-42.8 27.1-49.8.6-2.4.4-2.6-6-3.8-16.1-2.9-52.5-5.4-52.5-3.5zM1251.4 445.7c2.7 9.9 3.7 13 4.7 14.3.9 1.3 1 1.3.6-.1-.3-.9-1.5-4.9-2.7-8.8-1.1-3.9-2.3-7.1-2.6-7.1-.3 0-.3.8 0 1.7zM269.5 450.6c-20.8 5.2-45.5 13.8-45.5 16 0 2.2 17.5 36.1 23 44.8 2.8 4.3 5.5 7.5 5.9 7 .5-.5 1.9-4.1 3.1-7.9 3.8-11.9 12.7-33.6 19.5-48 3.6-7.6 6.5-13.9 6.5-14.1 0-.7-2.5-.3-12.5 2.2zM410 449.5c0 3.5 24.1 48.2 27 50 .4.3 1.8-1.1 3.1-3.1 3-4.8 15-19.7 20.7-25.6 2.9-3 4.3-5.1 3.7-5.7-2.1-2-33.1-11.9-48.2-15.4-4.9-1.1-6.3-1.2-6.3-.2zM857.5 452c-15 3.8-37.1 11.2-38.9 13-.6.6 1.6 3.6 5.7 8 3.7 3.8 9.9 11.3 13.9 16.6l7.2 9.6 1.9-2.3c5.2-6.4 26.7-47.2 25.6-48.4-.2-.2-7.2 1.4-15.4 3.5zM1001 448.5c0 .3 2.2 5 4.9 10.4 6.6 13 14.4 31.8 19.7 47 2.4 6.8 4.5 12.5 4.7 12.8.8.8 14.5-23.1 21.8-38 3.9-8.1 7-14.9 6.8-15.1-2.1-2-33.4-12-48.5-15.6-9.5-2.2-9.4-2.2-9.4-1.5zM622.6 462.1c-2.2 13.6-3.6 27.7-4.2 41.1-.7 14-.6 15.1 1 14.5.9-.4 5.9-1 11.1-1.3 8.8-.6 9.5-.9 9.5-2.8 0-5.5-12.6-48.4-15.9-54.5-.5-.8-1.1.2-1.5 3zM655.2 467.2c-5.2 14.3-13.1 43.2-13.2 47.9 0 .3 4.5.9 10 1.3 5.5.3 10.5.7 11.1.9 2.7.6-1.2-54.5-4.1-57.6-.4-.5-2.1 2.9-3.8 7.5zM206.2 473.5c-15.1 7.4-31.6 16.6-36.1 20.2l-2.4 2 6.7 13.8c7.6 15.8 21.6 39.9 22.6 38.8.3-.5 1.6-5.4 2.9-11.1 3.5-15.9 10.5-39.7 16.6-55.9 3-8.1 5.4-14.8 5.2-14.9-.1-.2-7.1 3-15.5 7.1zM589.2 479.7c.6 12.3 4 40.1 5.3 43.6.4 1 2.3.7 8.8-1.5 4.5-1.5 9.3-2.7 10.6-2.7 2-.1 2.2-.4 1.6-2.8-1.6-6.7-24.6-50.3-26.5-50.3-.3 0-.2 6.2.2 13.7zM690.9 469.6c-5 7.6-15.4 26.9-20 37.4-4.2 9.2-4.6 10.6-3.1 11.2 3.8 1.5 19.4 5.9 19.8 5.6 1.7-1.7 7.1-49.9 6.3-55.8-.4-2.2-.5-2.2-3 1.6zM470 467.9c0 1.7 16.9 34.1 22.4 42.9l5.8 9.3 11.9-12c6.5-6.6 11.9-12.2 11.9-12.5 0-.8-16-10.7-26.2-16-13.4-7.2-25.8-12.8-25.8-11.7zM1064.1 474.2c6.8 16.5 20.9 64.4 20.9 70.9 0 4.3 2.2 2 9.3-9.9 7.7-13.1 11.5-20.3 17.3-32.9l3.3-7.3-9.2-5.7c-9.7-6.1-41.3-22.3-43.4-22.3-.8 0-.2 2.5 1.8 7.2zM44.5 476.7c-2.6 4.3-7.8 14.2-11.7 22-6.4 13.1-7 15-7.5 22-.3 4.3 0 13.4.6 20.3 1.1 12.7 3.2 28.2 3.7 27.7.2-.1 1.4-8.2 2.9-18 3.1-21.8 8.2-47.4 13.4-67 2.1-8.1 3.7-14.7 3.5-14.7-.2 0-2.4 3.5-4.9 7.7zM1234.4 472.4c4.4 13.5 12.6 52.6 16.1 76.2 1.3 9.1 2.6 16.8 2.8 17 .7.8 2.7-16.8 3.7-33.2l1-15.5-3.6-8.2c-5.8-13.4-22.1-43-20-36.3zM91.5 484.2c-7.8 8.4-19 22.3-25.9 32l-4.7 6.8 1.1 5.7c1.9 9.3 9.6 35.1 13.1 44.3l3.3 8.5.7-4.5c.4-2.5 1.5-9.9 2.3-16.5 3.2-23.4 8.2-48.1 14.2-69.8 2-7.1 3.3-13.1 3.1-13.3-.2-.3-3.5 2.8-7.2 6.8zM1184.4 478.5c.3 1.1 1.6 6 3 11 5.6 19.7 12.4 54.5 15.9 81l1.2 10 4.4-12c4.9-13.9 10.8-34.5 11.7-41.5l.6-4.8-8.5-11.5c-7.4-10-13.7-17.5-26-31.1-2.2-2.4-2.7-2.7-2.3-1.1zM556 480.3c0 4.8 15.2 52.8 17.5 55.5.2.2 2-.8 4.2-2.1 2.1-1.3 6.3-3.7 9.3-5.2 3-1.5 5.7-2.9 5.8-3 .6-.6-7.8-12.5-16.7-23.5-10.9-13.6-20.1-23.5-20.1-21.7zM717.4 488.7c-9.4 10.6-27.4 34.1-27.4 35.8 0 1 18.7 11.1 19.4 10.4 2.5-2.6 18.8-55.9 17.2-55.9-.3 0-4.4 4.4-9.2 9.7zM155.5 503.7c-17.7 13-35.5 29-35.5 31.8 0 5.1 25.7 52.8 27.1 50.2.4-.6 1-4.4 1.4-8.2 1.7-16.9 8-49.5 13.9-71 1.3-5 2.3-9.1 2.2-9.2-.1-.1-4.2 2.8-9.1 6.4zM350.5 498.1c-10.9.8-31.3 3.5-34.8 4.5-1.5.5-1.1 1.5 2.9 7.2 10.4 14.7 33.2 40.9 34.4 39.5.4-.4 2-4.6 3.5-9.3 3.2-9.6 10-26.2 15.1-36.2l3.4-6.8-6.7.1c-3.8.1-11.7.6-17.8 1zM377.6 498.2c4.9 8.5 34.1 43.8 36.3 43.8.4 0 2.4-3.8 4.5-8.4 2-4.6 6.6-13.2 10.2-19.2 3.5-5.9 6.2-10.9 6-11.1-.9-1-25.2-4.3-38.2-5.2-18.3-1.4-19.7-1.4-18.8.1zM885 498.1c-12.1.9-33.9 3.8-35.6 4.8-.8.4.4 3.2 3.5 8.3 3.6 6 8.8 16.1 15.7 30.6.9 1.8 36.4-41.2 36.4-44.1 0-.8-5.3-.7-20 .4zM909 497.9c0 .6 2 5.2 4.5 10.1 4.7 9.4 11 24.6 14 34 2.4 7.4 2.4 7.4 4.7 5.3 4.6-4 19.2-21 27.4-31.9 6.7-8.8 8.5-11.7 7.4-12.4-4.4-2.8-58-7.5-58-5.1zM526 498.5c0 2.9 16.7 33.6 27.9 51.4.7 1.1 2.2.3 7.4-4.1 3.6-3.1 7.6-6.4 8.9-7.3l2.3-1.6-9-8.6c-12.9-12.2-37.5-31.8-37.5-29.8zM744.5 506.6c-13.2 10.1-33.5 28.2-33.5 29.8 0 .6 1.2 1.9 2.8 2.8 1.5.9 5.2 3.9 8.4 6.7l5.6 5.1 4.9-7.8c8.8-13.8 23.8-42.5 23.1-44.2-.2-.4-5.2 3-11.3 7.6zM1119 498.6c0 .4 2 8.7 4.5 18.6 4.4 17.5 9.7 45.9 11.1 58.8 1.2 11.2 1.3 11.2 8.1-.2 6.4-10.8 20.3-38.4 20.3-40.4 0-.7-3.3-4.2-7.2-7.9-12-11.1-36.8-30.6-36.8-28.9zM309.5 503.8c-17.7 3.3-55.5 15.4-55.5 17.7 0 2.9 35.6 46.5 38 46.5.4 0 1.3-2.8 2-6.3 2.3-10.8 8.7-32.8 13.4-45.6 2.5-6.8 4.5-12.5 4.3-12.6-.1-.1-1.1 0-2.2.3zM441.5 506.7c6.6 10.1 34.4 43.3 36.3 43.3.4 0 2.3-2.6 4.1-5.8 1.9-3.1 6.1-9.4 9.3-14 3.3-4.6 5.8-8.5 5.7-8.6-.2-.2-4.7-1.9-9.9-3.9-14-5.2-29.3-9.7-44.4-13.2l-2.9-.6 1.8 2.8zM835 505.6c-19.8 5.1-49 14.6-49 16 0 .2 2.4 3.7 5.3 7.7 3 3.9 7.2 10.2 9.4 14l4 6.7 7.6-7.9c10.2-10.7 29.7-35.3 29.7-37.5 0-.8-.4-.7-7 1zM972.9 508.3c3.7 8.5 10.9 31.4 14.1 44.7 1.9 7.4 3.5 13.7 3.7 13.9.6.7 5.3-4.1 14.6-14.9 12-13.8 23.9-30.2 22.9-31.2-2.6-2.6-49.2-16.8-55.2-16.8-1.9 0-1.9.1-.1 4.3zM640.6 522.7c-1 3.7-3.5 27.2-4.2 40l-.7 13.3h10.6l-.6-15.3c-.6-13.3-3.2-38.5-4.2-39.5-.2-.2-.6.5-.9 1.5zM22.1 522c0 .3-1.9 5.9-4.2 12.5-2.2 6.5-5.6 17.9-7.5 25.2-3 11.7-3.4 14.9-3.4 25.6 0 14.8 3.4 46.7 4.9 46.7.4 0 1.2-10.5 1.9-23.3 1.3-24.7 3.8-49.5 7.2-70.8 1.2-7.1 1.9-13.7 1.7-14.7-.3-.9-.5-1.5-.6-1.2zM240.8 526.4c-14.3 6.5-42.8 22.6-42.8 24.3 0 1 10.4 14.9 18.6 24.8 13.5 16.3 20.2 23.2 20.7 21.5.3-.8 1.3-7.4 2.2-14.5 2-15.6 5.5-32.9 9.5-48.2 1.7-6.2 3-11.4 3-11.7 0-1.1-1.5-.6-11.2 3.8zM1031.3 523.4c3.2 8.3 11.8 50.2 13.2 64.1.4 3.8 1.1 7.6 1.5 8.3 1.1 2.2 21.6-20.9 34.3-38.8l4.6-6.6-9.2-5.8c-8.6-5.4-42.1-22.6-44-22.6-.5 0-.7.6-.4 1.4zM501 523.7c0 1.9 20 27 30.6 38.2l7.9 8.4 2-2.8c1.1-1.6 4.4-5.6 7.3-9.1l5.2-6.3-9.2-5.7c-14.9-9.2-43.8-24.2-43.8-22.7zM1260.1 524c-.1.8.8 6.5 1.9 12.7 3.9 22.6 7.8 64.5 8.1 86.8 0 7.4.3 9.2.9 7.1 1.4-4.6 3.9-26.8 4.6-41.1.6-12.3.5-13.7-2.4-25.5-4.3-17.5-13-44.2-13.1-40zM618 526.2c-.1 9.4 4.9 50 6.3 51.4.2.2 2.5.1 5-.2 4.1-.6 4.6-.9 4.2-2.8-3.1-15.2-11.9-45.1-14.6-49.6-.6-1.1-.8-.8-.9 1.2zM658.2 540c-5.2 16.3-10 35.5-9.1 36.4.2.2 2.4.6 4.9.8l4.5.3 1.7-10c2.1-12.9 4.1-33.7 3.6-39.5-.3-4.2-.7-3.4-5.6 12zM768.4 529.4c-11.7 5.7-28.2 15-35.2 19.8l-4.2 2.9 5 5.7c2.9 3.1 5.9 6.9 6.8 8.4.9 1.6 1.9 2.8 2.3 2.8 1.4 0 19.8-20.2 27.1-29.7 9.1-11.9 11.3-15.3 10.1-15.3-.6 0-5.9 2.4-11.9 5.4zM51 538.9c-3.9 6.6-10 18.1-13.6 25.6l-6.6 13.6 3.7 14.4c3.5 14.2 11.9 40.2 13.4 41.8.4.4 1.1-7.7 1.4-18 .9-26.1 3.5-51.6 7.8-77.2 1.1-6.3 1.7-11.6 1.5-11.8-.2-.3-3.6 5-7.6 11.6zM1224.4 529.2c1 3.4 5.6 34.6 7.1 49.3.9 8.2 1.9 23.9 2.2 34.8.3 10.9 1 19.4 1.5 18.9 2.4-2.4 15.8-47.4 15.8-53.2 0-2.6-9.5-22.6-17-35.8-6-10.5-10.7-17.4-9.6-14zM596.7 533.2c3.2 14 14.1 47.1 16.1 48.9.4.4 2.6-.2 4.9-1.2l4.2-1.8-2.4-5.5c-6.2-14-20.6-40.9-22.5-42.1-.4-.3-.6.5-.3 1.7zM680.8 538.8c-8.3 13.9-20.4 39-19.3 40 .3.3 2.2 1.3 4.4 2.3l3.9 1.7 2.2-5.6c5.8-14.9 14.8-44.8 13.8-45.8-.3-.2-2.5 3.1-5 7.4zM107.5 547.1c-4.9 5.5-13.4 15.9-18.7 23L79.1 583l2.2 5.3c6 14.5 25.3 49.1 26.9 48.1.4-.3.8-4.2.8-8.7 0-18.3 3.3-53.3 7.1-75.8 2.1-12.8 2.3-14.9 1.2-14.9-.5 0-4.8 4.6-9.8 10.1zM1165 537.8c0 .7.9 6.3 2 12.5 3.2 18.5 6 46 6.7 67.1.5 17.5.8 19.6 2 18 5.2-6.9 22-38.4 26.2-49.1 1.3-3.1 1.1-3.5-3.5-10-11.3-15.8-33.3-41.2-33.4-38.5zM576 541.5c0 2.8 23.7 45.6 26.1 47 1.2.8 7.9-3.3 7.9-4.8 0-1.8-15-21.8-24.8-33-7.9-9.2-9.2-10.4-9.2-9.2zM704 542.9c-.8 1.1-4.6 5.4-8.3 9.7-6.4 7.4-18.2 22.6-22 28.5-1.7 2.6-1.7 2.6 2.4 5.4 3.4 2.4 4.2 2.6 5 1.4 5.2-7.8 14.8-24.7 19.8-34.7 5.7-11.3 6.7-14.7 3.1-10.3zM386 547.1c-13 1.2-31 4-31 4.9 0 2 43.6 37.8 44.7 36.6.1-.1 1.6-5.4 3.2-11.6 1.6-6.3 4.5-15.9 6.4-21.3l3.5-9.7-8.6.1c-4.8.1-13 .6-18.2 1zM418.9 547.3c4.9 6 42.1 35.7 44.6 35.7.6 0 2.2-3 3.5-6.8 1.3-3.7 4.1-10.5 6.2-15.1 2.1-4.6 3.6-8.6 3.4-8.9-1.5-1.4-29-4.9-46.1-5.8-12.1-.7-12.9-.6-11.6.9zM840.5 547.1c-11.4 1-32 4-33.5 4.9-.7.4.5 3.9 3.4 10.1 2.4 5.2 5.2 12 6.2 15.1 1 3.2 2.1 5.8 2.4 5.8 2.4 0 32.7-24 41-32.4l4.4-4.6-7.4.1c-4.1.1-11.5.5-16.5 1zM871 546.7c0 .5 1.3 4.6 3 9.1 1.6 4.5 4.4 13.4 6.1 19.9 1.7 6.5 3.3 12 3.4 12.1 1 1.1 35.8-26.9 42.3-34l2.3-2.5-4.3-.7c-20.6-3.3-52.8-5.7-52.8-3.9zM187.2 557.7c-10.5 7.6-26.4 20.8-33 27.5l-5.3 5.4 7.4 10c14.6 19.7 30.5 37.3 31.8 35.2.5-.7.9-6.7.9-13.3 0-6.6.7-18.5 1.5-26.5 1.4-14.7 5.3-41.8 6.1-43.2 1.3-2.1-2.1-.3-9.4 4.9zM336.2 555.5c-19.2 4.9-42.2 12.7-42.2 14.4 0 2.6 43.7 38.1 47 38.1.4 0 1.1-3.3 1.4-7.3.9-8.9 3.9-25.1 7.2-37.9 1.3-5.3 2.4-9.9 2.4-10.2 0-1-2.1-.6-15.8 2.9zM931 552.2c0 .2 1.3 5.5 2.9 11.8 1.6 6.3 3.9 17.8 5.1 25.5 1.2 7.7 2.4 15 2.6 16.3.4 2.2.8 2 8.1-3 8.8-6.1 30-23.8 35.6-29.5l3.8-4-8.3-3.1c-11.8-4.4-22.7-7.8-34.3-10.6-13.3-3.2-15.5-3.7-15.5-3.4zM486.5 558.6c9.1 8.3 24 20.3 33.3 26.9 6.7 4.6 8.6 5.5 9.3 4.4.5-.8.9-1.9.9-2.4 0-.6 2-4.5 4.5-8.8l4.4-7.8-2.7-1c-10.2-4.1-16.7-6.4-23.2-8.5-8.1-2.7-29.9-8.4-31.5-8.4-.5.1 1.7 2.6 5 5.6zM786 556.5c-12.9 3.5-28.9 8.8-37.3 12.4l-4.8 2.1 1.9 2.7c1.1 1.6 3.6 6.1 5.6 10l3.6 7.3 7.3-5.1c17-12.1 40.9-32.9 37.7-32.8-.8 0-7.1 1.6-14 3.4zM564.2 564.2c7 9.3 22 26.8 26.6 31.2l3 2.8 3.5-3.5 3.5-3.4-5.6-5.5c-10.9-10.5-34.5-29.8-36.6-29.8-.4 0 2.1 3.7 5.6 8.2zM717.4 560.3c-6.5 4.8-20.7 16.7-29.7 24.9l-5.8 5.3 3.6 3.5 3.7 3.5 8.6-9.1c10-10.5 27.5-32.4 25.9-32.4-.3 0-3.1 1.9-6.3 4.3zM1277.2 571.5c0 2.2.4 5.3.8 7 .7 2.8.8 2.8.8-1 0-2.2-.4-5.4-.8-7-.7-2.8-.8-2.8-.8 1zM279.7 575.4c-6.5 3-13.9 6.6-16.5 8.1-10.8 6.2-25.2 15-25.2 15.5 0 2.6 43.7 38 46.9 38 .7 0 1.1-2.9 1.1-8.3 0-11.1 1.7-29.4 4-45.1 1.1-7.1 1.9-13.1 1.7-13.2-.2-.2-5.6 2.1-12 5zM991.5 573.2c2.7 12.4 5.5 39.2 5.5 53 0 6 .4 10.8.8 10.8 3.5 0 46.2-35.3 46.2-38.2 0-2.1-47.8-27.8-51.8-27.8-.8 0-1.1.8-.7 2.2zM547.5 577.7c12.4 11.3 38.9 31.4 39.9 30.2 1.5-2 4.7-8.1 4.5-8.4-3.3-3.1-46.3-26.6-48.6-26.5-.5.1 1.5 2.1 4.2 4.7zM723.8 580.3c-13.1 6.7-32.8 18.3-32.8 19.3 0 .3 1.2 2.2 2.6 4.4l2.6 3.9 5.9-4c12-8.1 38.9-30.7 36.7-30.9-.4 0-7.1 3.3-15 7.3zM71.8 595.3c-7.7 12.8-14 24.7-18.3 34.7l-3.6 8.5 2.2 5.5c5.4 13.3 23.8 47 25.7 47 .4 0 .5-3.3.1-7.3-1.7-16.1-2.1-55.6-1-76.1.7-11.4 1.1-21 .9-21.2-.2-.2-2.9 3.8-6 8.9zM438.5 586.7c-8.4.7-29.2 3.4-32.1 4.2-2.8.7-2.4 1 9.3 8 12 7.1 38 20.1 40.2 20.1 1.2 0 1.5-1.1 3.1-11.6.6-4 2-10.4 3-14.3l1.8-7.1-10.6.2c-5.9.1-12.5.3-14.7.5zM474.5 590.5c6.2 4 40.1 21.3 44.8 22.9 1 .3 1.9 0 2.2-.7 4-13.3 5.7-19.8 5.3-20.3-1.8-1.7-40.9-6.4-53.3-6.4h-6l7 4.5zM789 587.1c-11.7 1.2-30.7 4.1-32 4.9-.9.5-.5 3 1.4 8.9 1.4 4.5 2.6 8.9 2.6 9.7 0 3.7 4.3 2.3 24.5-7.8 9.9-5 28.5-15.7 28.5-16.4 0-.6-17-.2-25 .7zM820 586.9c0 .5.9 4.7 2 9.3 1 4.6 2.4 11.4 3 15.3.6 3.8 1.2 7.1 1.4 7.2 1.4 1.4 49.2-23.6 51.1-26.7.7-1.1-8.9-2.7-25.7-4.5-16.5-1.7-31.8-2-31.8-.6zM22.7 601.2C13 631 12.2 638.6 16.5 655c2.9 11 10.7 35.1 11.2 34.6.2-.1-.2-11.6-.9-25.5-.9-19.5-.9-31.2 0-50.9.7-14 1-25.7.8-25.9-.2-.2-2.4 6.1-4.9 13.9zM1205.8 598c.9 15.5.9 66.6-.1 81.5l-.8 12 5.6-9c3.1-5 9.5-16.7 14.2-26.2l8.5-17.2-5.1-11.4c-4.7-10.3-17.1-33-21.3-38.8-1.6-2.3-1.7-1.9-1 9.1zM1255.4 592.2c1.2 6.8 1.8 65.6.8 80.3-.6 8.2-.9 15.1-.7 15.3.6.6 8.4-24.4 11.1-35.3 1.3-5.5 2.4-11.9 2.4-14.3 0-5.2-3.7-20.3-9.1-37-3.9-11.9-5.7-15.5-4.5-9zM390.5 594.1c-10.4 2.3-29.7 8.2-39.9 12.1-9.2 3.6-9.6 2.7 5 11.4 8.4 4.9 37 19.4 38.5 19.4.3 0 .9-5.3 1.3-11.7.3-6.5 1.3-16.5 2.2-22.2.8-5.7 1.4-10.4 1.2-10.6-.2-.1-3.9.6-8.3 1.6zM532 593.6c0 1.7 45.9 25.4 49.1 25.4.8 0 2.2-2 3.1-4.4l1.6-4.4-9.3-3.6c-14.1-5.4-44.5-14.3-44.5-13zM748.5 593.5c-.5.2-7.7 2.2-15.9 4.5-8.3 2.3-19.6 6-25.2 8.1l-10.3 4 1.8 4c1 2.1 2 4.2 2.3 4.5 1.6 1.5 48.8-22.7 48.8-25.1 0-.3-.1-.5-.2-.4-.2 0-.7.2-1.3.4zM884.5 595.7c1.8 10.4 2.6 17.4 3.2 28.5.3 7.1.8 12.8 1 12.8 1.6 0 31-15.1 40.1-20.6 10.6-6.4 11.2-6.9 9-8-7.2-3.7-46.6-15.4-51.8-15.4-1.6 0-1.9.5-1.5 2.7zM1137.8 611.5c.9 22.9.9 31.8-.1 54l-.8 17.9 2.7-2.4c7-6.6 30.3-35.5 32.7-40.7.8-1.8.2-3.2-3.8-9-5.6-7.9-19-24.3-26.4-32.3l-5-5.5.7 18zM224.1 608.5c-11 8.3-28.3 22.8-32.9 27.7l-2.2 2.5 6.2 5.9c13.2 12.5 38.4 32.4 41 32.4.7 0 .8-3.1.3-9.3-.9-12.4-.9-45.8 0-58 .4-5.4.4-9.7-.1-9.7s-6 3.9-12.3 8.5zM1046.3 604.6c1.4 11 1.8 39.9.8 55.4-.5 9-.8 16.6-.6 16.8 1 1.1 27.7-20 41-32.3l6-5.6-8.8-8.4c-8.3-7.9-28.9-24.5-35.9-28.9l-3.1-2 .6 5zM335 612.4c-9.2 3.9-25.8 12.5-37.2 19.3-8.9 5.4-10.7 6.8-9.6 7.8 4.2 4 43 24.7 50.3 26.9 2 .6 2 .1 2-27.9V610c0 .1-2.5 1.1-5.5 2.4zM942.5 638.7c0 15.5.2 28.3.5 28.3s7-3.2 15-7c14.7-7.2 37-19.9 37-21.2 0-1.9-33.8-20.7-47.5-26.4l-5-2.1v28.4zM498 616.1c-6.9.4-18.1 1.6-24.9 2.5-10.3 1.4-12.1 1.9-10.7 3 3.7 2.6 37 12.6 53.2 15.9l3.1.6.7-8.8c.4-4.8.8-9.9.9-11.3.2-2.3-.1-2.5-4.8-2.6-2.7-.1-10.6.2-17.5.7zM526.7 616.1c2.3 2.2 46 14.9 51.2 14.9 1.3 0 2-1 2.5-3.1 1.3-6.5 1.4-6.4-9.6-8.2-15.6-2.5-45.5-5-44.1-3.6zM743 616.1c-10.4.7-40 4.6-40.7 5.3-.2.1 0 2.4.3 4.9.5 3.4 1.1 4.7 2.3 4.7 5.7 0 48-12.7 50.6-15.1.6-.6.6-.8 0-.8-.6.1-6.2.6-12.5 1zM762.9 615.4c-.3.3-.2 2.9.2 5.8s.8 7.9.8 11c.1 3.2.4 5.8.9 5.8 5.4 0 56.2-15.3 56.2-16.9 0-2-56.4-7.4-58.1-5.7zM448.3 623c-18.6 4.2-50.1 14.6-48.6 16.1 2.2 2.1 51.2 16.9 56.2 16.9.3 0 .6-7.9.6-17.5v-17.4s-3.7.9-8.2 1.9zM826.5 639v16.9l2.5-.5c18.2-4.1 46.2-12.4 52.4-15.7 1.9-.9 1.8-1-.5-2.2-6.5-3.5-47.6-15.5-52.7-15.5-1.5 0-1.7 1.6-1.7 17zM.4 639c0 6.9.1 9.7.3 6.2.2-3.4.2-9 0-12.5-.2-3.4-.3-.6-.3 6.3zM548.5 635.1c-16.9 1.7-25.1 3.1-22.8 4 5 1.8 51 5.8 53 4.6.5-.3.7-2.6.5-5.1l-.4-4.6-11.2.1c-6.1.1-14.7.5-19.1 1zM704 639.1v5.1l11.8-.6c14.5-.8 39.2-3.6 41.1-4.6 2.6-1.4-28-4.9-43.6-5H704v5.1zM176.8 651.5c-9.6 10.9-27.8 34.1-27.8 35.7 0 2.2 46.3 39.9 47.4 38.7.2-.2-.7-6.8-2-14.6-3.1-18.9-5.4-43.9-5.4-58.4 0-6.5-.4-12-.9-12.3-.5-.4-5.6 4.6-11.3 10.9zM273.4 648.1c-12.5 9.3-25 19.8-31.2 26.2l-4.3 4.4 7.3 4.5c15.8 9.7 22.8 13.4 35.7 19.2 5.7 2.6 10.6 4.5 10.8 4.2.3-.3-.2-4.9-1.1-10.3-2.8-17.5-3.6-25.5-4.3-41.1-.3-8.3-.9-15.2-1.3-15.2s-5.7 3.6-11.6 8.1zM384.5 644.7c-14.6 6.7-41.5 21.8-41.5 23.3 0 2 54.2 18.1 55.7 16.6.3-.3 0-3.3-.5-6.8-1-6.1-3-24.7-3.5-33.5l-.2-4.2-10 4.6zM500.4 643.4c-13.2 3.4-37.2 11.2-38.7 12.6-1.8 1.6 22.9 4.8 44.2 5.7l15.4.6-.6-3.2c-.4-1.7-1-6.7-1.3-11.1-.7-7.8-.8-8-3.3-8-1.4.1-8.5 1.6-15.7 3.4zM763.7 648.7c-.4 4.9-1 9.9-1.4 11.2l-.6 2.4 14.9-.6c14.3-.6 36.5-3 42.9-4.6 2.8-.7 2.4-1-5.9-3.9-15.7-5.7-42.9-13.2-47.9-13.2-1 0-1.6 2.4-2 8.7zM997.6 640.7c-.3.3-.6 5.4-.6 11.2 0 11.2-2 31.9-4.5 46-.8 4.7-1.3 8.7-1.1 8.9.8.8 28.2-13 40.9-20.6l13-7.7-6.9-6.3c-14.4-13.1-39.6-32.7-40.8-31.5zM100.6 651.9c-7.9 13-20.6 38.8-20.6 41.6 0 4.6 37.1 50 37.8 46.3.2-.9-.8-9-2.2-18-4-26.4-6.6-54.2-6.6-72.6 0-4.5-.4-8.2-.9-8.2-.6 0-3.9 4.9-7.5 10.9zM887.6 653.2c-.3 6.8-1.3 16.5-2.1 21.7-.9 5.2-1.4 9.6-1.1 9.8 1.6 1.6 54.6-14.8 54.6-16.9 0-1.9-46-26.8-49.6-26.8-.7 0-1.3 4.4-1.8 12.2zM1094.6 655c-.9 18.6-3.1 40.1-5.7 56.3-1.1 7.1-1.9 13.1-1.6 13.3 1.1 1.2 25.6-18 38.4-30l7.8-7.3-3.6-5.4c-5.4-8.2-18.6-24.4-27.1-33.4l-7.6-8-.6 14.5zM1173.7 659.7c-.8 20.7-2.7 40.9-5.8 60.8-1.2 7.1-2.3 14.8-2.6 16.9l-.6 3.9 8.7-9.4c9.2-9.8 29.6-36.1 29.6-38.1 0-3.6-26.1-52.8-28.1-52.8-.3 0-.9 8.4-1.2 18.7zM45.2 650c-3.9 9.9-9.3 27.7-12.2 40.4l-2.1 8.9 8.5 17.1c4.7 9.4 11 21.1 14.1 26.1l5.7 9-.7-4.5c-.3-2.5-1.7-11.5-3-20-3.1-19.7-5.5-45.3-6.3-67.8l-.7-17.7-3.3 8.5zM10.6 648.7c-2.3 16.5-3.5 30.6-3.7 41.9-.1 11.5.2 14.2 3 25.4 4.2 16.3 12.5 41.1 12.9 38.3.2-1.2-.8-9.8-2.3-19-3.7-24.3-5.3-40.8-6.6-66.8-.7-12.7-1.5-23.4-1.9-23.8-.4-.4-1 1.4-1.4 4zM1233.7 663.7c-.9 25.6-5 64.3-8.7 80.8-.5 2.2-.7 4.1-.5 4.3 1.4 1.4 26.5-46.3 26.5-50.4 0-5.8-13.5-51.1-15.9-53.7-.4-.4-1.1 8.1-1.4 19zM1270.1 653c-.2 12.5-1.7 36-3.7 54-1.4 13.5-5.7 42.9-7 47.5-.4 1.6-.3 1.7.5.5 1.8-2.5 9.9-28.2 13.2-41.7 3-12.3 3.1-13.3 2.5-26.8-.7-14.5-3.1-35.1-4.6-40.1-.6-2.1-.9-.4-.9 6.6zM565 649.1c-12.3 3.1-35.5 10.5-38 12-3 1.9 26.1-.5 44.8-3.7 9.9-1.8 9.9-1.7 8.6-8.3-.8-3.8-.7-3.8-15.4 0zM702.6 650.7c-.3 2.5-.4 4.8-.2 5 1.4 1.4 41.7 6.3 51.4 6.3 4.3 0 1.2-1.5-12.6-6-10.1-3.4-35-10-37.3-10-.3 0-.9 2.1-1.3 4.7zM442 664.6c-17.9 8.6-38.4 20.6-36.8 21.5 3.5 1.9 57 7.1 58.4 5.7.2-.2-.5-3.7-1.6-7.7-1-4-2.4-10.5-3-14.5-1.5-9.9-1.9-11.6-2.8-11.6-.4 0-6.8 3-14.2 6.6zM561.4 667.5c-18.3 9.2-31 16.4-28.8 16.5 4.3.1 50.3-14.7 52.7-16.9.9-.9-2.5-9.1-3.9-9.1-.6 0-9.6 4.3-20 9.5zM825.5 662.7c-1.3 7.9-3.6 19-5 24.2l-1.4 5.4 13.7-.6c14.6-.7 45.2-4.5 45.2-5.7 0-1.9-47.1-27-50.7-27-.7 0-1.5 1.7-1.8 3.7zM503.4 671.4c-14.1 6.8-33.9 18-34.9 19.6-.5.8 10.5.4 26-1.1 10.3-1 32.3-4.3 33-5.1.2-.1-1-4.1-2.6-8.8-1.6-4.7-2.9-9.3-2.9-10.3 0-2.9-2.8-2-18.6 5.7zM760.9 666.1c0 1.3-1.2 6.1-2.8 10.6-2.4 7.5-2.5 8.3-1 8.8 3.8 1.2 29.1 4.5 38.4 5 5.5.3 11.9.8 14.3 1 2.3.3 4.2.1 4.2-.3 0-2.1-43-24.9-50.2-26.7-2.5-.6-2.8-.4-2.9 1.6zM332 675.2c-17.8 12.8-38.8 31.4-37.2 33 2.8 2.8 49.4 16.8 55.8 16.8h2.2l-2.4-8.3c-2.7-9.1-7-30.8-8-40.5-.4-3.4-1-6.4-1.3-6.6-.4-.3-4.5 2.3-9.1 5.6zM578 675.1c-16.8 12.1-37.2 29.7-32.9 28.4 7.6-2.3 46.9-24.5 46.9-26.6 0-1.1-4.3-7.9-5-7.9-.3 0-4.3 2.8-9 6.1zM692.7 673.8l-2.5 3.8 8.2 5.1c16.6 10.4 39.1 22.1 40.3 21 1.2-1.2-39.6-33.7-42.3-33.7-.6 0-2.3 1.7-3.7 3.8zM941.6 671.2c-.3.7-1 5.6-1.6 10.8-1.1 8-6.3 33.1-8.6 40.9-.7 2.3-.6 2.3 3.7 1.6 11.8-2 50.4-13.9 53.2-16.5 1.6-1.4-42.3-38-45.6-38-.4 0-.9.6-1.1 1.2zM585.8 687.3c-8.1 8.8-25.3 29.9-27 33.1-2.3 4.3 21.3-14.4 34.4-27.2l7.8-7.6-3.2-3.3c-1.8-1.8-3.5-3.3-3.8-3.3-.3 0-4 3.8-8.2 8.3zM685.1 682.6l-3.4 3.4 2.9 3.1c7.5 8 39.4 34 39.4 32.2 0-1.9-24.4-31.5-32.2-39l-3.3-3.2-3.4 3.5zM228.7 688c-11.8 12.5-31.8 38.3-30.6 39.3.2.3 4.9 3.2 10.5 6.5 15.4 9.3 43.4 23 43.4 21.3 0-.4-1.7-7.6-3.9-16.1-4-16-8.5-40.4-9.7-52.3-.4-3.7-1-6.7-1.4-6.7-.5 0-4.2 3.6-8.3 8zM1045.7 681c-.3.8-1 6-1.7 11.5-1.5 13.1-6.3 37.1-10.1 51.3-1.8 6.2-3 11.5-2.7 11.7.7.7 35-16.8 44.5-22.8l9.3-5.8-5.6-7.7c-14.2-19.3-32.9-40.6-33.7-38.2zM517.5 693.5c-17.3 12.4-37.7 30.5-34.4 30.5 4.7 0 39.3-10.7 50.6-15.6l5.2-2.3-4.9-9.3c-2.7-5.1-5.5-9.4-6.2-9.5-.7-.2-5.3 2.6-10.3 6.2zM753.6 688.8c-.3.9-2.6 5.3-5.1 9.6-2.5 4.4-4.5 8-4.5 8.2 0 .1 5.7 2.3 12.7 4.9 14.1 5.2 33.4 10.9 40.3 11.9l4.5.7-6-5.6C783.9 707.7 757.3 687 755 687c-.5 0-1.1.8-1.4 1.8zM596.4 697.2c-6.1 10-16.2 28.7-19 35.3l-1.6 4 2.7-2.5c6.7-6.1 33.6-40.5 32.4-41.4-3.2-2.4-6.9-4.6-7.7-4.6-.6 0-3.7 4.2-6.8 9.2zM676.2 690c-1.2 1-2.8 2-3.5 2.3-2.3.7 14.7 23.9 29.2 39.7l5.1 5.5-1.6-4c-4.4-11.3-23.5-44.5-25.9-45.1-.5-.2-2 .5-3.3 1.6zM388.9 696.3c-11.1 8.4-24.7 19.8-30.3 25.6-3.8 3.9-3.9 4-1.5 4.5 11 2.3 33.6 4.6 45.1 4.6h10.7l-3.5-9.8c-2-5.3-4.8-14.6-6.4-20.7-1.5-6-3.2-11-3.7-11.2-.4-.1-5.1 3.1-10.4 7zM882.5 691.7c-1.7 7.4-7 25.5-9.5 32l-2.8 7.3h10.1c13.3 0 45.7-3.7 47.4-5.4.8-.7-25.3-23-36.7-31.2-8.1-5.9-7.9-5.8-8.5-2.7zM139 703c-8.2 13.8-19 35.9-19 38.8 0 2.9 21.8 22.3 38.4 34 3.3 2.3 6.1 4.1 6.2 3.9.2-.2-1.2-6.1-3.1-13.2-6-22.4-13.5-62.4-13.5-72.3 0-1.7-.4-3.2-1-3.2-.5 0-4.1 5.4-8 12zM1135.7 694c-.3 1.4-1.3 7.9-2.2 14.5-2.8 20.7-10.8 58.3-14.5 67.9-.5 1.4-.6 2.6-.1 2.6 2.6 0 30.7-22.7 40-32.4l4.5-4.5-4.8-10.5c-4.4-9.5-16.6-31.8-20.7-37.7l-1.7-2.4-.5 2.5zM455.4 699.7c-10.4 7.4-23.4 18-31.1 25.5-3.5 3.3-6.3 6-6.3 6.1 0 .1 6.4-.1 14.2-.5 12.7-.6 40.5-4 44.1-5.3 1-.4.4-2.4-2.4-8.3-2-4.3-4.9-11.2-6.4-15.5-1.5-4.2-3.1-7.7-3.5-7.7-.4 0-4.3 2.5-8.6 5.7zM611.5 697.7c-5 11.8-16.1 48-15.1 49 1 1.1 23-40.5 25-47.2.5-1.7-.1-2.4-3.1-3.5-2.1-.8-4.1-1.6-4.5-1.8-.4-.2-1.4 1.4-2.3 3.5zM665.2 695.9c-3.8 1.4-4.2 1.8-3.7 4.1 1.6 6.5 23 46.9 24.2 45.6 1.1-1.1-14-49.6-16-51.2-.1-.1-2.1.6-4.5 1.5zM816.2 700.7c-1.3 3.8-4.2 10.7-6.4 15.6-2.3 4.8-3.9 8.9-3.7 9.2 2.1 2 57.9 7.2 57.9 5.3 0-2-42.5-36.8-45-36.8-.3 0-1.6 3-2.8 6.7zM76.7 700.4c-3 6.9-11.4 33.9-13.6 43.8l-2.2 9.7 4 6c8.7 12.8 32.6 40.9 33.8 39.8.2-.2-1.9-9.1-4.6-19.8-5.7-22.2-10.1-44.6-12.6-63.4-.9-7.2-2-14.6-2.4-16.5l-.8-3.5-1.6 3.9zM1277.5 701.2c-.4 2.6-.5 5.3-.2 6 .2.7.8-.8 1.2-3.4.4-2.6.5-5.3.2-6-.2-.7-.8.8-1.2 3.4zM623.1 704.6c-1.9 10.8-4 28.5-4.6 39.4-.5 9.8-.5 10.3.9 7.3 3.4-7.5 14.6-46.1 14.6-50.4 0-.3-2.2-1.1-4.9-1.6l-4.9-1-1.1 6.3zM1203.5 703.5c-1.4 12.1-4.7 33.3-7.1 45.5-2 10-10 43-12.1 50-1 3.4 21.5-22.7 31.5-36.6 2.9-4 5.2-8.2 5.2-9.5 0-5.8-11.7-45.6-15.5-52.8-1.2-2.5-1.3-2.3-2 3.4zM651.8 699.7c-2 .3-2.8 1-2.8 2.4 0 3.5 4.9 21.8 9.8 36.9 4.5 13.8 4.7 14.3 5 10 .5-5.8-1.5-26.7-3.6-39.5-1.9-10.8-1.9-10.8-8.4-9.8zM636.4 714.2c.8 15.3 3.4 38.6 4.6 40.7 1.4 2.6 5-28.6 5-44.2V701h-10.3l.7 13.2zM28.7 712.5C27 724.1 25 745 25 751.5c0 9.2 1.6 14.9 7.9 27.5 5.5 10.9 16.3 30.2 16.7 29.7.2-.1-1.3-6.1-3.2-13.2-4.6-17.3-11.9-54-13.9-69.5-.9-6.9-2-13.9-2.4-15.5-.7-2.8-.8-2.7-1.4 2zM527.9 719.6c-9.6 10.8-23.9 28.6-26 32.6-.9 1.6-.7 1.6 2.8.1 11.7-4.8 41.5-21.3 47-25.9l2.2-1.9-6.5-8c-3.7-4.4-7.2-8.1-7.9-8.3-.7-.2-5.9 5-11.6 11.4zM741.3 709.8c-.6 1-3.7 4.9-6.8 8.6-3.2 3.7-5.4 7.1-4.8 7.4 11.3 7.9 48.6 28.2 51.6 28.2 1 0-1.2-3.1-11.5-16.4-8-10.3-25.4-29.6-26.6-29.6-.4 0-1.2.8-1.9 1.8zM284.9 716.7C273.6 728.6 254 753.5 254 756s55.8 19.5 57.7 17.6c.3-.2-1.1-4.7-3-9.8-5.2-13.5-9.2-26.5-12.8-41.3-1.7-7.2-3.2-13.1-3.4-13.3-.1-.1-3.5 3.3-7.6 7.5zM987.5 721.7c-2.9 12.4-9.7 34.3-14 45.2-1.4 3.6-2.3 6.6-2.2 6.8.5.4 19.8-4.3 29.7-7.3 8-2.4 27.1-9.2 27.9-10 1.3-1.2-35.5-46.4-37.8-46.4-.5 0-2.1 5.3-3.6 11.7zM1252.6 713.7c-.3 1.5-.8 5-1.1 7.8-2.6 20-10.4 59.4-15.5 76.9-1.1 3.8-1.8 7.1-1.6 7.4.6.6 10.9-18 17.3-31.3l5.8-12-.3-11.5c-.2-10.3-2.9-39-3.7-39.8-.2-.2-.6.9-.9 2.5zM552.2 730.3c-7.1 10.3-20 34-24.6 45.1l-1.6 3.8 2.8-1.7c12.5-8.1 43.8-35.4 43-37.5-.2-.4-4-3.7-8.5-7.3l-8.2-6.7-2.9 4.3zM470.4 734.9c-13.5 14.4-31.7 38.1-29.2 38.1 6.6-.1 55.8-15.8 55.8-17.9 0-.3-2.3-3.8-5.1-7.6-2.8-3.9-6.9-10-9.1-13.8-2.2-3.7-4.3-6.6-4.7-6.6-.3.1-3.8 3.6-7.7 7.8zM345.9 734.7c-10.4 10.7-31.9 37.4-31.9 39.5 0 1.3 28.4 4.7 45.3 5.4l15.7.7-5.1-10.9c-5.4-11.5-12.9-30-15-37.2-.7-2.3-1.5-4.2-1.8-4.2-.4 0-3.6 3-7.2 6.7zM929.5 729.2c-6 17-9.9 26.7-15.1 37.5l-6.3 13.3h8.2c15.4 0 51.7-4.3 51.7-6.1 0-2.5-35.5-45.9-37.6-45.9-.2 0-.7.6-.9 1.2zM190.4 738.2c-5.6 9-20.7 38.2-21.8 42.3-.5 1.7.9 3 8.7 7.9 9.9 6.2 43.5 23.2 44.3 22.4.2-.3-1.1-4.6-3-9.5-7.8-20.4-17.4-53.1-20.2-68.6-.3-2-1-3.7-1.5-3.7-.4 0-3.4 4.2-6.5 9.2zM1085.7 730.1c-.3.8-2.2 8.4-4.2 16.9-4.9 20.2-11.9 42.1-20 62.2-.6 1.6-.1 1.5 4.6-.4 8.7-3.6 28.7-14 38.7-20.2 8.7-5.4 9.3-6 8.7-8.5-2-8.3-26.9-53.1-27.8-50zM404 745.6c-5.2 5.8-13.4 15.8-18.3 22.2l-8.7 11.7 5.7.3c10.6.6 52.3-4.1 52.3-5.9 0-.4-2.5-4.9-5.6-10-3-5.2-7.6-13.8-10.2-19.2-2.5-5.3-4.9-9.7-5.2-9.7-.3 0-4.8 4.8-10 10.6zM863.6 745.7c-2.6 5.4-7.3 14-10.3 19.1-3.1 5.1-5.4 9.4-5.2 9.6.2.2 7 1.3 15 2.5 16.2 2.3 41.9 3.9 41.9 2.6 0-2.7-33.7-43.5-35.9-43.5-.5 0-2.9 4.4-5.5 9.7zM571.6 746.3c-5.2 11.7-16.6 50-15.3 51.3 1.5 1.6 37.3-43.4 36.5-45.8-.2-.5-4.5-3.1-9.6-5.8l-9.3-4.9-2.3 5.2zM707.5 741.9c-1.1 1-15.1 8.5-17.5 9.3-2.3.7 17.2 26.7 31.2 41.6 2.8 2.9 5.1 5.2 5.3 5 .5-.6-5.7-23.6-9.6-35.1-5.5-16.3-8.1-22.1-9.4-20.8zM116.5 748.6c-3 7.3-11.3 34.2-13.5 43.8l-2.2 9.8 5.3 5.5c10.7 10.9 41 34.6 41.6 32.6.2-.5-2.2-7.6-5.3-15.8-8.3-22.3-18.9-58.9-22-75.8-.8-4.7-2-4.7-3.9-.1zM1161.2 755.8c-5 22.6-12.9 49-21.7 72-2.5 6.8-4.5 12.5-4.3 12.8.8.7 23.7-17.1 34.7-27 8.8-7.8 11.1-10.5 11.1-12.5 0-4.2-5.7-25.5-10.6-39.6-2.5-7.1-4.8-13.8-5.1-14.8-1-3.3-1.8-1.6-4.1 9.1zM594.2 756.7c-3.2 14.7-6.9 54.3-5.1 54.3 1.1 0 13.1-21.1 19.3-34.1 7.4-15.5 8.6-18.9 6.2-18.9-1.4 0-13.9-3.8-17.8-5.4-1.3-.6-1.8.2-2.6 4.1zM683.9 753.4c-.3.3-4.3 1.6-8.9 2.9-7 2.1-8.4 2.8-8.2 4.4.5 3.1 17.9 37.5 22.7 44.8l4.6 7-.6-12.5c-.7-12.4-2.4-28.3-4.6-40.6-.9-5-1.5-6.4-2.8-6.4-1 0-2 .2-2.2.4zM491.8 767.7c-3.6 6-8 13.4-9.7 16.5-3.9 6.9-12.1 25.1-11.6 25.6 1.3 1.3 47.7-23.7 52.2-28.2.3-.2-23.8-24.6-24.3-24.6-.1 0-3.1 4.8-6.6 10.7zM59.1 764.5c-2.2 12.2-4.1 31.6-4.1 42.4v10.3l4.7 6.7c9 12.7 31 38.8 31.9 37.8.2-.2-1.8-6.2-4.5-13.3-7.8-20.7-14.9-43.4-20.2-64.9-2.7-11-5.3-21.4-5.7-23-.8-2.7-1-2.3-2.1 4zM246.9 766.2c-6.6 10.2-23.1 42.7-22.7 44.6.7 3.4 55.1 20.3 57.5 17.9.3-.4-2.6-7.3-6.5-15.4-7.6-16-13.1-29.3-18.2-44.3-1.8-5.2-3.5-9.9-4-10.3-.4-.5-3.1 2.9-6.1 7.5zM771.7 769.9l-11.8 11.9 2.8 2c9.4 6.5 48 26.9 49 25.8 1.7-1.7-25.1-51.7-27.6-51.6-.3.1-5.9 5.4-12.4 11.9zM1029.7 758.7c-.2.4-1.7 4.6-3.2 9.3-4.2 13-11.9 31.8-19.1 46.8-3.5 7.4-6.4 13.7-6.4 13.9 0 2.2 50.3-12.5 56.8-16.6 1.1-.6 0-3.6-4.5-13.2-8.9-18.6-22.5-42-23.6-40.2zM618 766.6c0 10.3 1.6 28.1 3.6 41.8 1.5 10 1.8 10.7 3 8.5 3.8-7.4 15.4-47.5 15.4-53.5 0-1.9-.7-2.2-8-2.8-4.4-.3-9.3-.9-11-1.2l-3-.7v7.9zM656.5 760c-2.7.5-7.1.9-9.7.9-3.2.1-4.8.5-4.8 1.4 0 6.8 15.7 58 17 55.6 1.8-3.3 4.8-31.8 5.1-47.4.2-12.3.6-11.8-7.6-10.5zM1221.7 762c-.4 1.4-2 8.3-3.7 15.5-5.6 23.6-17 60.1-24.9 79l-2.1 5 6.7-7c7.1-7.3 18.8-21.7 26.2-32l4.3-6-.7-12.5c-.6-12.9-3-34.9-4.4-41-.8-3.3-.8-3.4-1.4-1zM25 773.1c0 8.3 2.5 32.1 4.5 42.8.9 4.6 3.4 12.4 5.7 17.5 4.5 10 18.1 35.1 21 38.8l1.9 2.3-.6-2.5c-.4-1.4-2.6-7.7-5-14-7.4-19.9-15.4-45.7-21-68.4-3-12.1-5.7-22.1-6-22.4-.3-.3-.5 2.4-.5 5.9zM1256.6 769.1c-.2.8-1.6 6.8-3.1 13.4-5.6 24.7-17.2 62.2-25.5 82.6-1.6 4-2.8 7.5-2.6 7.7 1.1 1 17.1-28.6 24-44.2 3-6.8 6.3-27.3 7.5-47.1.8-12.3.7-15.6-.3-12.4zM304.8 788.7c-9.3 15.4-21.3 40.2-20.2 41.3 2.7 2.5 60.4 7.8 60.4 5.6 0-.2-2.9-5-6.5-10.7-6.7-10.6-24.5-45.2-24.5-47.6 0-3.1-2-.6-9.2 11.4zM431.4 786.2c-7.4 11.8-22.7 42.2-21.5 42.6 2.3.8 39.2-10.1 53.4-15.7l2.8-1.1-7.9-8.9c-4.4-5-10.6-12.5-13.7-16.8-3.2-4.3-6.1-8.2-6.5-8.6-.4-.5-3.4 3.3-6.6 8.5zM968.5 779.2c-2.1 7-20.2 40.7-29.2 54.5l-1.7 2.6 14.6-.6c13.8-.6 42.9-4.2 45.5-5.6.7-.4-1-4.9-5.3-14-6.6-13.9-21.1-39.1-22.5-39.1-.4 0-1.1 1-1.4 2.2zM842.4 781.7c-6 8-15 19-20.3 24.5l-5.4 5.8 3.4 1.4c13.5 5.7 51.2 16.6 52.6 15.3 1.2-1.3-21.8-44.9-26.2-49.5-1-1.2-1.8-.7-4.1 2.5zM366.9 795.7c-7.8 13.1-19.9 37-19.9 39.4 0 1.8 27.8-.3 49.8-3.8 5.6-.9 10.2-2 10.2-2.5 0-.4-2.2-3.6-4.9-7.1-5.8-7.4-19.6-28.3-23.1-35-1.4-2.6-2.8-4.7-3.2-4.7-.4 0-4.4 6.2-8.9 13.7zM520.7 792.2c-6.1 16.2-14.5 45.4-13.3 46.5 1.1 1.1 25-17.7 38-29.9l7.9-7.4-6.9-4.1c-3.8-2.3-10-6.4-13.9-9.2-3.8-2.8-7.2-5.1-7.6-5.1-.3 0-2.2 4.2-4.2 9.2zM752.5 786.9c-2.8 2.1-8.8 6.2-13.5 9.1-4.7 2.9-8.7 5.4-8.8 5.6-.2.1 2.9 3.4 7 7.2 16.4 15.6 37.1 31.4 37.6 28.9.7-3.6-13.9-51.2-16.5-53.8-.5-.5-3.1.9-5.8 3zM903.6 788.1c-3.9 7.1-17.4 27.2-23.4 34.9l-5.1 6.5 6.2 1.2c15.6 3 54.7 6.3 54.7 4.6-.1-3.7-26.9-52.3-28.9-52.3-.4 0-2 2.3-3.5 5.1zM165.5 787.7c-5.1 12.3-15.5 48.1-15.5 53.1 0 2.2 5.5 6.1 21.5 15 10.8 6 30.5 15.5 30.5 14.7 0-.2-2.9-6.2-6.4-13.3-8.2-16.4-16.3-35.6-23.3-55.2-3-8.5-5.6-15.6-5.8-15.8-.1-.2-.6.5-1 1.5zM1115.6 788.1c-9.3 28-18.3 50.4-28.8 71.3-2.7 5.4-4.7 10-4.5 10.2 1.1 1.2 38.6-18.8 50-26.7 1.3-.9-5.5-27.5-10.9-42.8-4.6-13.2-5.1-14.2-5.8-12zM554.6 803.8c-.9 1.5-4.5 28.2-5.1 37.7-.3 4.9-.8 11.7-1 15l-.5 5.9 3.6-3.4c8.1-7.8 34.4-40.9 34.4-43.3 0-.3-2.4-1.3-5.2-2.3-2.9-.9-9.3-3.5-14.3-5.6-4.9-2.2-9.5-4.2-10.1-4.4-.7-.3-1.4-.1-1.8.4zM719.5 806.5c-3.8 1.9-10.5 4.6-14.7 6.1-4.3 1.5-7.8 3.1-7.8 3.6 0 2.3 20.2 28.3 31 39.8l6.1 6.5-.6-12c-.9-19.4-4.7-47.6-6.4-47.4-.3 0-3.7 1.6-7.6 3.4zM98.7 815.2C96.2 831 95 843.9 95 855.4v10.4l7.3 6.7c12 11.2 37.4 31.1 38.4 30.2.2-.2-3.5-8.2-8.1-17.8-9.6-19.7-21.3-48.3-27.5-67.2-2.4-7-4.4-12.7-4.5-12.7-.2 0-1 4.6-1.9 10.2zM1181 808.5c0 2.3-11.9 34.8-18.5 50.5-3.2 7.4-8.9 20-12.9 28-3.9 7.9-7.3 14.8-7.5 15.3-1.2 3 26-18.4 37.7-29.7l8.4-8.1-.7-13c-.6-11.5-2-25.3-4.1-39.8-.6-4.3-2.4-6.7-2.4-3.2zM221.5 815.7c-5.2 13.5-16.5 51.2-16.5 55.3 0 1.9 23.1 10 42.6 15 18 4.5 17.5 5 9-8.8-9.4-15.1-20.9-36.5-27.7-51.5-2.9-6.4-5.6-11.7-6-11.7-.4 0-1 .8-1.4 1.7zM465.2 821.8c-5.9 15.4-15 46.8-13.8 47.9 1.2 1.2 30.5-13.7 43.9-22.3l7.7-5-8.3-6.1c-4.6-3.3-12.4-9.7-17.4-14.2l-9.2-8-2.9 7.7zM1056.6 820.8c-5.6 13-17.9 36.4-27.2 51.9-5.2 8.6-9.2 15.8-8.9 16.2 1.6 1.5 52.9-13.9 55.8-16.8 1.2-1.2.1-7.1-5-25.1-3.5-12.3-9.9-30.8-11.2-32.2-.4-.4-2 2.3-3.5 6zM807 821.1c-3.6 3.3-11 9.5-16.5 13.6-5.5 4.2-9.9 7.8-9.9 8.1.7 2.7 48.6 28.3 50.1 26.8 1.9-1.8-14.2-54.7-16.6-54.6-.3.1-3.5 2.8-7.1 6.1zM588.5 823.7c.2 4.3.7 12.1 1 17.3.6 9.9 3.3 30.2 4.4 33.3.5 1.3 2.5-1.3 7.8-10.5 10.5-17.9 20.8-39.8 19.3-40.8-.7-.4-3.8-1.1-6.9-1.4-5-.6-19.1-3.6-24.4-5.2-1.6-.5-1.7.1-1.2 7.3zM689 817.5c-2.5.8-9.9 2.4-16.4 3.5-6.6 1.1-12.1 2.2-12.3 2.3-.6.6 17.7 36.5 22.8 44.7l5.3 8.5.8-4.5c2.8-15.9 6.1-56.2 4.7-55.9-.2 0-2.4.7-4.9 1.4zM1253.5 823.5c-.9 3.1-1.5 5.8-1.3 6 .2.3 1.2-2 2.2-5.1 1-3.1 1.6-5.8 1.3-6-.2-.2-1.2 2.1-2.2 5.1zM624.6 826c4.5 20.4 15.5 55.3 16.9 53.8 2.2-2.1 16.5-50 16.5-55.1 0-.9-4.3-1.2-17-1.2l-16.9-.1.5 2.6zM55.1 832.5c-.1 6.5 2.2 28.8 3.9 37.4.5 3 2.1 7.7 3.4 10.5 2.6 5.7 16.1 23.4 25.9 34.1l6.5 7-7-14.5c-11.2-23.2-22.1-50-31.1-76l-1.5-4.5-.1 6zM1226 831.4c-.5 1.5-1 3-1 3.3 0 1.4-10.7 29.8-15.7 41.8-3 7.1-8.6 19.5-12.4 27.4-3.8 7.9-6.8 14.5-6.7 14.7.5.4 14.1-15.6 21.5-25.4 9.6-12.7 10.8-15.5 12.7-29.2 1.7-11.9 3.6-34.2 3-34.9-.2-.2-.8.8-1.4 2.3zM404.7 840.4c-6.6 17.1-14.8 46.8-13.4 48.2 1.9 1.9 58.4-15.5 57.5-17.7-.2-.3-5.1-4.9-10.9-10.2-5.8-5.2-14.6-14-19.5-19.6-4.8-5.6-9.1-10.1-9.5-10.1-.3 0-2.3 4.2-4.2 9.4zM867.7 837.9c-6 7.1-20.7 21.6-29.1 28.9-2.7 2.3-4.7 4.4-4.5 4.7 3.2 3.1 55.7 19 57.4 17.4 1.6-1.7-14.1-53.6-17.4-57.1-.3-.4-3.2 2.4-6.4 6.1zM282.1 833.8c-3.6 6.8-17.9 54.7-16.7 56 2 2 58.5 7.6 60.2 5.9.8-.7 1-.3-12.6-18.7-5.5-7.4-14.1-20.6-19.2-29.2-5.1-8.6-9.6-15.7-10-15.7-.4-.1-1.2.7-1.7 1.7zM997.8 834c-.8 1.4-3.4 5.9-5.8 10-6.5 11.3-19.3 30.2-28.3 41.9l-8 10.4 14.4-.7c18.2-.9 44.9-4.3 46.6-5.9 1.4-1.4-10-40.9-15.5-53.7l-1.9-4.4-1.5 2.4zM344.7 840.2c-2 4.8-7.2 19.2-9.6 26.8-2 6.4-7.1 26.6-7.1 28.4 0 1 21.4.1 34.4-1.5 12-1.4 26.6-4 26.6-4.8 0-.4-2.3-2.9-5.1-5.6-7.2-7.1-22.4-25.3-30.7-36.8l-7.1-9.8-1.4 3.3zM932 844.2c-6.7 9.5-18.6 24.1-28.8 35.3-5 5.5-8.9 10.1-8.7 10.3 1.6 1.6 42.5 6.2 55.1 6.2h5.2l-2.4-10.3c-2.7-11.6-13-43.8-14.8-46.2-1-1.4-1.8-.8-5.6 4.7zM148.6 846.7c-1.9 6.7-5.6 41.6-5.6 53.3v4.8l8.3 5.3c14.1 9.1 44 24 45.3 22.6.3-.3-2.2-4.9-5.5-10.2-12.9-20.4-29.3-51.2-37.7-70.8-2.9-6.9-3.9-7.9-4.8-5zM505.5 846.2c-1.7 5.3-5.5 39.8-5.5 50.6v6.3l4.3-3c10.5-7.2 40.3-32.3 40.6-34.1.1-.3-4.7-2.8-10.6-5.7-6-2.9-14.5-7.5-19.1-10.2-4.6-2.8-8.5-5.1-8.8-5.1-.3 0-.7.6-.9 1.2zM769.5 849.1c-3.3 2.2-11.6 6.7-18.5 10.1-6.9 3.4-12.7 6.3-12.9 6.5-1.6 1.2 29.5 27.5 42.1 35.7l2.6 1.7-.5-9.8c-.9-18.7-4.7-48.4-6.2-48.2-.3 0-3.3 1.8-6.6 4zM1131.1 848.7c-4.4 12.7-27.5 56.4-39.8 75.2-3 4.6-5.2 8.6-4.9 8.9 1.3 1.2 31.6-14.2 45.9-23.4l6.7-4.4v-8.9c0-14.3-4.3-51.1-5.9-51.1-.4 0-1.3 1.7-2 3.7zM549.4 883.2c.6 15.1 3.6 40.1 4.9 41.5 1.6 1.5 36.2-40.3 36.2-43.8 0-.6-4.9-2.3-11-3.9-6-1.6-15.5-4.5-20.9-6.4l-9.9-3.6.7 16.2zM725.5 870.2c-7.1 2.6-24.3 7.6-31.8 9.2l-2.8.7 5.2 7.5c8.6 12.3 30 37.4 32 37.4 1.5 0 6.5-47.4 5.7-54.8l-.3-2.9-8 2.9zM95.4 883.5c.3 8.2 1.5 21.3 2.6 29l2 14 10.1 9.8c8.7 8.4 35.9 30.1 36.7 29.2.1-.1-1.9-3.6-4.6-7.6-12.8-19.5-29.2-49.5-40.9-75.1l-6.5-14.3.6 15zM1186.1 873.1c-7.4 19.4-31.4 64.5-45.3 85.1-2.1 3.1-3.8 5.9-3.8 6.3 0 1.7 34.6-26.2 41.7-33.7 2.9-3 3.4-4.4 5.2-15.8 2.1-13.2 4.6-42.8 3.7-43.7-.3-.3-1 .5-1.5 1.8zM449 879.7c-1.9 11.2-3.8 28-4.5 41-.6 10.1-.5 12.3.6 12.3 3.8 0 52.9-26.9 52.9-29 0-.3-2.8-2-6.3-3.9-8.1-4.4-25.6-16.1-33.3-22.2-3.4-2.7-6.6-4.9-7.2-4.9-.5 0-1.5 3-2.2 6.7zM823.9 878.6c-9 6.9-23.2 16.3-31.6 21.1-3.5 1.9-6.5 3.8-6.8 4.3-.8 1.3 17.2 12.2 34.9 21 8.8 4.4 16.4 8 16.9 8 2.4 0-2.4-53.7-5.2-58.7-.5-1-2.6.1-8.2 4.3zM203.1 881.3c-2.4 13.5-4.2 33.7-3.9 43.2l.3 10 3.5 1.7c8.5 3.9 31.6 11 50.3 15.2 2.5.6 1.9-.5-6.6-11.6-13.4-17.6-21.1-29-32.5-48.1l-10-16.7-1.1 6.3zM1073 885.2c-6.7 12.2-24.8 39.4-35.6 53.5-5.2 6.9-9.4 12.7-9.2 12.8 1.1 1.2 40.1-10.5 50.7-15.1l5.4-2.4-.7-13.3c-1-17.5-4.2-43.7-5.5-43.7-.3 0-2.6 3.7-5.1 8.2zM595 881.6c0 .5 1.8 7.6 3.9 15.9 4.3 16.4 11.8 38.5 13.1 38.5 1.9 0 24-40.6 26.4-48.8.7-2.1.4-2.2-4.1-2.2-4.9 0-28.8-2.4-35.5-3.6-2.1-.4-3.8-.3-3.8.2zM675.5 882.6c-4.4.7-13.5 1.6-20.2 2l-12.1.7.9 2.4c5.3 14 25.7 50.3 27 48.1 3-5.4 15.9-48.3 15.9-53.1 0-1.9-.3-1.9-11.5-.1zM62.5 888c1.6 7.9 7.8 29 11.9 39.9 3 8.3 5.9 14 9.7 19.2 11.5 16.1 31.8 39.6 30.4 35.4-.3-1.1-5.6-10.2-11.6-20.2C90.8 942.1 76.8 915.6 69 898c-5.6-12.5-7.7-15.7-6.5-10zM1217.5 890.6c-1.4 3.1-2.5 5.8-2.5 6.1 0 .2-4.5 9.5-10.1 20.6-12.4 24.7-19.9 37.9-36.4 64.2l-1.9 3 2.8-2.5c8.2-7.3 32.3-38.1 35.2-44.9 5-11.8 17.2-52.1 15.8-52.1-.2 0-1.5 2.5-2.9 5.6zM389.1 896.1c-2 9.9-4 27.3-4.7 41.7l-.7 14.3 3.9-.7c12.1-2.1 54.4-15.8 54.4-17.5 0-.4-3-2.9-6.7-5.5-12.9-9.1-25.2-19.3-42-34.7l-3.1-2.9-1.1 5.3z"/><path d="M264.7 893.6c-2.3 7.5-5.7 37.9-5.7 50.5v8.6l3.8.7c19.2 3.2 55.5 6.6 56.9 5.2.3-.3-4-5.4-9.5-11.3-12.8-13.7-21-23.6-32.5-39.2-13.6-18.3-12.3-16.9-13-14.5zM880.5 902.1c-6 5.5-17.3 14.8-25 20.6-7.7 5.8-14.1 10.9-14.3 11.2-.8 2.1 55.6 19.6 57.4 17.9 1.7-1.8-4.6-59.9-6.5-59.7-.3 0-5.5 4.5-11.6 10zM1013 898.1c-11.3 16.4-29.4 38.4-42.7 52.2-4.2 4.2-7.3 8-7 8.3.3.3 8.1.1 17.4-.5 14.8-1 23.6-2.1 39.1-4.7l4.3-.7-.6-11.6c-.7-12.3-4-41.7-5.3-46.5l-.8-2.8-4.4 6.3zM325.6 908.5c-2.1 13.4-3.4 27.3-3.8 40l-.3 10 10.5-.3c20.2-.6 50.3-4.6 49.8-6.6-.2-.7-4.1-4.5-8.7-8.6-10.9-9.6-26.8-25.4-36-36-4.1-4.7-8-8.6-8.7-8.8-.7-.2-1.7 3.3-2.8 10.3zM943.3 910.2c-12.5 13.8-20.7 21.9-33.8 33.4-4.9 4.3-9.1 8.1-9.3 8.4-.4.9 27.5 4.9 38.8 5.5 5.2.3 12.3.8 15.8 1.1l6.2.5v-6.8c0-13-4.1-49.7-5.9-53.1-.5-.9-4.4 2.7-11.8 11zM500 913.8c.1 15 4.3 52.2 5.9 52.2.4 0 5.9-3.9 12.3-8.8 14.1-10.5 35.2-29.2 34.1-30.2-.4-.4-5.7-2.4-11.8-4.5-6-2.1-17.6-6.9-25.7-10.6l-14.8-6.7v8.6zM776.5 908.2c-7.7 4.1-23.5 10.8-33.7 14.3-5.7 1.9-10.9 3.8-11.7 4.1-1.1.3-.5 1.4 2 4.1 9 9.5 42.3 36.2 43.6 35 .9-.9 4.1-23.8 4.7-34.2.4-5.5.9-13.5 1.2-17.8.7-8.7.4-9-6.1-5.5zM143 911.3c0 6.4 2.1 30.3 3.6 39.7 2.8 18.6 1 15.8 15.3 24.3 12.4 7.5 39.8 21.3 40.6 20.6.2-.2-4.2-6.3-9.7-13.4-12.3-15.8-33-46.9-41.8-62.8-3.6-6.4-6.8-11.6-7.2-11.7-.5 0-.8 1.5-.8 3.3zM1133 918.7c-11.8 20.8-33.9 53.4-48.1 71-4.9 6.1-5 6.2-2.1 5.2 10.3-3.6 48.5-24.9 50.2-28 2.3-4.1 7.7-57.9 5.9-57.9-.3 0-2.9 4.3-5.9 9.7zM555.5 932.2c2 11.9 14 50.4 16.5 53.1 1.6 1.8 37.9-42.3 38-46.1 0-.7-1.2-1.2-2.9-1.2-4.8 0-26.9-4-39.1-7.1-6.3-1.6-11.9-2.9-12.3-2.9-.5 0-.6 1.9-.2 4.2zM720 929.6c-6.7 2.2-32.5 7.2-40.7 8-4 .4-7.3.8-7.3 1.1 0 3.5 37.1 48.6 38.6 47 1.9-1.9 12.2-34.9 15.3-49 2.2-9.9 2.3-9.7-5.9-7.1zM444.4 948.7c1 18.3 4.3 45.3 5.8 46.9 1.7 1.7 53.8-26 53.8-28.6 0-.3-2.1-1.3-4.8-2.4-8.1-3.2-34.3-17-44.5-23.4-5.4-3.4-10.1-6.2-10.4-6.2-.3 0-.3 6.2.1 13.7zM827.5 941.6c-5.5 3.6-18.7 10.8-29.3 16.1-10.6 5.3-18.9 10-18.5 10.4 4.4 4.2 48.4 27.9 51.9 27.9.6 0 1.4-2.1 1.8-4.8 2.9-19.4 3.7-26.6 4.3-40.5.3-8.6.4-15.7.2-15.6-.2.1-4.9 3-10.4 6.5zM1206.6 937.5c-1.9 2.8-3.8 7.5-3.1 7.5.3 0 1.6-2.3 3-5 2.7-5.4 2.8-6.6.1-2.5zM103 938.1c0 2.7 7.7 28.9 10.9 37.2 4.4 11.6 8.3 16.8 19.5 26.5 10.4 9 26 21.2 27.1 21.2.3 0-2.3-3.7-5.8-8.3-15-19.1-33.1-46.1-45.9-68.2-3.2-5.5-5.8-9.2-5.8-8.4zM199 945.7c0 10.5 1.6 27.2 3.8 40.8l1.7 10 3.8 1.8c5.5 2.7 25.6 9.4 38.2 12.7 15.3 3.9 16.5 4.2 16.5 3.1 0-.5-5-6.3-11.1-12.8-14-14.9-31.5-36.2-42.7-52-4.8-6.8-9-12.3-9.4-12.3-.5 0-.8 3.9-.8 8.7zM1075.7 947c-10 14.3-27.4 35.9-42.3 52.1-7.1 7.8-13 14.5-13.2 14.9-1 2.5 53.6-13.6 57-16.9 2.7-2.5 8.5-60.2 6.1-60.1-.5.1-3.9 4.5-7.6 10zM613 939.7c0 .2 2 4.9 4.6 10.5 4.6 10.5 14 27.9 20.2 37.6l3.4 5.4 2.3-3.5c4.8-6.9 16.9-29.5 21.5-39.7l4.7-10.5h-28.4c-15.5 0-28.3.1-28.3.2zM1178.1 939.6c-.1 1.7-16.3 28.3-25.5 41.9-4.4 6.6-12.9 18.4-18.8 26.2-5.9 7.9-10.4 14.3-10.1 14.3 1.5 0 22.9-17.7 31.4-26l9.7-9.5 4.2-12c5.4-15.5 10.3-33.2 9.7-34.8-.4-.7-.6-.8-.6-.1zM384.4 967.5c.7 14.2 2.9 34.2 4.7 42.6.9 3.9 1.4 4.9 2.7 4.5 1-.3 7.1-1.9 13.7-3.5 11.4-2.8 36.7-11.1 40.7-13.2 1-.5 1.8-1.3 1.8-1.7 0-.5-3.8-2.9-8.4-5.5-11.4-6.4-31-19.3-43.4-28.8-5.7-4.4-10.8-7.9-11.4-7.9-.8 0-.9 3.9-.4 13.5zM887.5 961.6c-12.3 9.4-31.9 22.4-44.3 29.4-5.1 2.9-8.9 5.6-8.5 6 3.8 3.5 56.5 19.1 57.7 17.1 1.2-1.9 4.7-30 5.2-40.9.2-7 .7-14.2.9-16 .2-1.7.1-3.2-.3-3.2s-5.2 3.4-10.7 7.6zM259.4 969.8c.8 18.9 4.1 42.1 6.4 44.4 2.3 2.3 25.4 5.7 44.2 6.4l14.5.6-5-4.3c-19.1-16.6-37.1-34.5-51.4-50.9-4.1-4.7-7.8-9-8.4-9.5-.6-.7-.7 3.9-.3 13.3zM1018.5 962.2c-5.3 6.8-40.7 42.6-51.3 51.7l-8.2 7.1h7.4c12.4 0 47.5-4.1 50.4-5.9 2.6-1.6 8.9-58.2 6.5-58.1-.4.1-2.6 2.4-4.8 5.2zM321 962.2c.1 8.4 2.4 34.4 4 45.2 1.1 7.1 2 13.1 2 13.2 0 2.3 55.1-2.9 59.8-5.5 1-.6-1.7-3.1-9.4-8.6-17.1-12.2-41.6-32.8-51.3-42.9-4-4.2-5.1-4.5-5.1-1.4zM949.5 970.7c-11.2 10.7-30.8 26.7-45.1 36.9-6.9 4.8-9.2 6.9-8.2 7.5 3.4 1.9 37.4 5.9 50.5 5.9 9.5 0 8.5 1.2 10.8-13.5 3-19.7 4.6-46.6 2.8-46.5-.5.1-5.3 4.4-10.8 9.7zM506 969c0 5.2 13.9 51 17 56 .7 1.2 2 .7 7.2-2.9 8.5-6 24.6-19.2 33.7-27.7l7.4-6.9-9.9-2.4c-13.3-3.1-31.6-8.6-44.3-13.3-11.7-4.3-11.1-4.1-11.1-2.8zM768 971.1c-10.4 4.1-30.3 10.1-44 13.4-6.3 1.5-11.7 2.9-11.8 3.1-.2.1 2.7 3.2 6.5 6.7 16.9 16 38.7 32.7 40.4 31 2.9-2.9 17.4-51.2 16.7-55.4-.3-1.5-1.2-1.3-7.8 1.2zM150.5 973.5c3.3 14.8 11.1 40.4 15.9 51.5 1.2 3 3.6 4.9 14.3 11.3 12.7 7.5 38.1 20.3 38.9 19.5.2-.2-4.4-5.5-10.2-11.8-19-20.4-32.8-37.1-47.9-58-11.8-16.3-11.8-16.3-11-12.5zM1129.8 974.8c-7 11.9-35.4 47.2-54.8 68.2-14.1 15.1-14.5 15 10.5 2.1 21.5-11.1 29.1-16.2 31-20.8 5-11.8 16.5-50.7 15.3-51.8-.2-.3-1.1.8-2 2.3zM103.5 988c1.9 3.3 10.6 16 11.1 16s-9.3-14.9-10.9-16.5c-.7-.7-.7-.5-.2.5zM573 988.8c0 1.8 15.6 32.5 21.7 42.6l6.7 11 7.1-7.6c10.5-11.2 31.5-37.9 31.5-40.2 0-.3-3.7-.6-8.2-.6-11.2 0-29.6-1.7-45-4-14.6-2.3-13.8-2.2-13.8-1.2zM121 993.4c0 1.6 14.8 29.8 20.6 39.4 4.8 7.8 8.6 12.6 14.2 17.7 15.2 14 36.2 30.6 36.2 28.5 0-.6-3.7-4.9-8.1-9.8-18.7-20-37.2-42.4-51.6-62.4-7.9-10.9-11.3-15-11.3-13.4zM1158.8 995.8c-7.1 12.1-39.8 52.4-58.2 71.9-5.8 6.2-10.6 11.5-10.6 11.8 0 .9 8.3-5 17.8-12.6 16.8-13.5 25.4-22 31.4-31.4 6.6-10.1 22.1-40.1 21.6-41.6-.2-.5-1.1.3-2 1.9zM452.7 1008.7c2.5 10.5 10.5 36 13.7 43.5.9 2.1 2.2 3.8 2.9 3.8 2.1 0 33.8-16.3 43.5-22.4 5.2-3.2 9-6.2 8.5-6.6-.4-.4-5.1-2.2-10.3-4-15-5.1-28.4-10.6-43.9-18.1-7.9-3.8-14.9-6.9-15.6-6.9-.9 0-.6 2.9 1.2 10.7zM818 1004.2c-13.9 6.7-31.8 14.1-46.1 18.9-5.2 1.7-9.8 3.5-10.3 4-.5.4 2.7 3.1 7 5.9 8.4 5.4 42.7 23 44.9 23 1.3 0 7.1-15.1 11.4-29.6 2-6.9 7.1-26.7 7.1-27.9 0-.9-1.4-.4-14 5.7zM205.6 1001.5c2.6 12.8 9.1 34.7 14.5 48.7l3 7.6 8.2 3c18.8 6.8 48.2 15.1 49.3 13.9.2-.2-4.2-4.4-9.8-9.3-15.1-13.1-36.2-33.8-48.5-47.7-5.9-6.6-12.3-13.7-14.1-15.6l-3.2-3.6.6 3zM1069.9 1007.8c-9.8 11.8-41.9 44.1-55.6 56-6.7 5.8-12.1 10.7-11.9 10.9 1.1 1.2 41.8-10.8 52.7-15.5 4.4-1.9 4.7-2.3 8.1-11.3 5.4-14.2 14.6-46.4 13.6-47.5-.2-.2-3.3 3.1-6.9 7.4zM390.7 1016.8c-1.1 1.9 10.7 42.4 15.8 54.5 1.5 3.6 1.7 3.8 5.3 3.1 12.3-2.2 54.2-15.7 54.2-17.4 0-.4-5.3-3-11.7-5.9-14.4-6.4-35.8-17.9-51.5-27.7-6.5-4-11.9-7-12.1-6.6zM265.4 1018.7c.3 1 1.4 5.8 2.6 10.8 2.8 12 12.8 42.1 14.9 44.5 1.2 1.6 4.6 2.4 15.1 4 14.7 2.3 45 3.9 45 2.4-.1-.5-6.5-5.5-14.3-11.1-16.8-12.1-36.6-28.6-51.2-42.4-10.2-9.7-13.2-11.7-12.1-8.2zM882.7 1022.1c-12.4 8-37 21.3-51.9 28.1-7.6 3.4-13.8 6.5-13.8 6.9 0 .8 16.2 7 27 10.3 9.9 3 30.1 7.9 30.5 7.4 2.4-2.7 17.5-52.2 17.5-57.4 0-1-2 0-9.3 4.7zM1010 1023.2c-21.6 20-40.8 35.9-59.8 49.3l-11.3 8 8.8.3c9.7.4 25.4-1 41.2-3.5l10.3-1.6 1.8-4.2c5.2-12.1 16.7-51.1 15.8-53.5-.2-.4-3.2 1.9-6.8 5.2zM328 1024.6c0 5.1 13.6 49.5 16.6 54.1 1.3 2.1 2.2 2.3 11.7 2.3 9.9 0 29.8-1.9 42.5-4.1l6.2-1.1-16.7-10c-19.1-11.4-30.5-19.1-48-32.5-6.8-5.1-12.3-9-12.3-8.7zM944 1032.7c-13.5 10.4-36.2 25.7-52.2 35.1-13.3 7.7-13.7 8-10.5 8.6 12.8 2.4 25.4 3.8 39.3 4.3 15.5.6 16.2.5 17.2-1.4 3.7-6.8 16.9-51 16-53.3-.2-.4-4.6 2.6-9.8 6.7zM525.6 1031.7c3.8 9.2 13 27 19.5 37.9 4 6.6 7.3 12.1 7.5 12.3 1.7 1.9 48.3-36.7 46.9-38.8-.2-.5-3.3-1.1-6.7-1.5-12.3-1.3-36.5-5.9-51.6-9.7-8.5-2.2-15.7-3.9-16.2-3.9s-.2 1.7.6 3.7zM747 1030.6c-11.7 3.4-40.3 9-53 10.5-5.8.7-10.8 1.5-11.3 1.9-1.3 1.1 24.9 23.9 39.9 34.6 3.7 2.7 6.9 4.3 7.4 3.8 4.2-4.4 28-49.5 28-53 0-.7-2.5-.2-11 2.2zM173.5 1041.5c1.4 3.3 4.5 9.6 6.9 14 12.8 23.7 17.2 28.7 32 37.4 12 7 30.6 16.4 31.2 15.8.3-.2-1.2-1.9-3.3-3.7-13.7-11.8-36.9-34.2-48.4-46.7-7.5-8.2-15.2-16.6-17.3-18.8l-3.7-4 2.6 6zM1106.5 1041.7c-13.5 16.1-40.7 43.4-62 62.1l-6 5.2 6-2.7c14.6-6.6 34.6-18.2 39.8-23.2 3.9-3.7 9.8-12.9 18-28.1 4.3-7.9 9-18 8.4-18-.2 0-2.1 2.1-4.2 4.7zM1136.9 1042.7c-3.2 3.9-4.4 5.7-3.2 5 1.3-.8 5.7-6.7 5-6.7-.2 0-1 .8-1.8 1.7zM603 1043.8c0 2.6 25.2 34.2 34.3 43l4.4 4.3 10.7-12.1c9.9-11.3 24.2-29.5 26.7-34.2 1.1-2 .9-2-8.8-1.3-13.1 1-43.2 1.1-56.5.1-7.2-.5-10.8-.5-10.8.2zM469 1058.8c0 1.8 15.2 31.6 21.5 42 5.9 9.9 7 11.2 8.9 10.6 4.6-1.4 28.7-13.7 39.6-20.2 11.3-6.9 13.9-9.2 10.2-9.2-6.3 0-49.8-12.7-70.5-20.6-9.8-3.7-9.7-3.7-9.7-2.6zM798.2 1063.7c-15.8 5.9-39.6 13-55.4 16.4-5.7 1.3-10.6 2.6-11.1 2.9-2 1.7 50.9 30 53.3 28.5 3.1-1.9 28.7-50 27.8-52.3-.1-.5-6.7 1.5-14.6 4.5zM225.6 1063.6c3.6 8.5 13 26.5 19.7 37.6l7.1 11.7 12 4.4c15.4 5.7 43.2 13.5 44.2 12.5.2-.2-6.4-5.3-14.7-11.3-16.8-12.2-36.7-28.3-50.9-41.4-5.2-4.8-11.6-10.6-14.3-13l-4.7-4.4 1.6 3.9zM1049.5 1068.7c-19.7 18.6-54.7 47-71.3 57.8-2.3 1.5-4.1 3-3.8 3.2 1 1.1 32.9-8.1 47.8-13.9 7.6-2.9 7.7-2.9 12.9-11 6.9-10.8 24.1-44.1 22.6-43.8-.1.1-3.8 3.5-8.2 7.7zM284 1077.5c0 2 13.9 29.3 20.6 40.6l7.6 12.7 6.2 1.1c16.2 2.9 43.8 5.6 51 4.9 4-.3 4-.3-9-7.7-22.3-12.7-52-33-75.1-51.4-.7-.5-1.3-.6-1.3-.2zM178.8 1082.5c4.1 5.1 15.1 16 20.8 20.5 1.7 1.4-.1-.5-4-4.2s-10.2-10-14-14c-4.2-4.5-5.3-5.4-2.8-2.3zM413.5 1087.6c9.8 21 22.7 42.4 25.6 42.4 5.2 0 39.7-10 50.8-14.7l4.4-1.9-9.4-3.3c-23.1-7.9-43.1-16.2-62.3-25.7-7-3.5-13-6.4-13.2-6.4-.2 0 1.7 4.3 4.1 9.6zM984.5 1088.1c-16 12.2-36.7 26.2-54.2 36.6-7.2 4.3-14.9 8.8-17 10.1l-3.8 2.3 12.5-.6c15.1-.7 27.5-2 39.3-4.1l8.7-1.6 6-9.7c6.3-10.1 22.6-41.8 21.9-42.5-.2-.2-6.2 4.1-13.4 9.5zM861.7 1084c-15.3 7.6-40.7 18.3-57.6 24.1-17.6 6-17.6 5.3-.1 11.4 11.6 4 35.9 10.5 39.3 10.5 2.2 0 7.2-7.5 17.5-26 4.5-8 12.3-25 11.4-24.9-.4 0-5.1 2.2-10.5 4.9zM349.6 1090.7c5.4 11.9 14.7 29.3 20.4 38.2l5.2 8.1h5.3c7.9 0 29.8-1.9 41-3.6 15.9-2.3 16.5-2.8 7.8-6.4-16.8-6.8-52.2-25.6-72-38.2-5.1-3.2-9.7-5.8-10.2-5.8-.6 0 .5 3.5 2.5 7.7zM554 1083.4c0 2.1 20.8 28.5 32.7 41.5l5.9 6.5 8.7-6.2c9.6-7 19-14.7 30.9-25.4 8-7.3 8-7.3 5.2-7.9-1.6-.4-7.6-.7-13.4-.8-16.5-.2-59.8-5.1-68.2-7.7-1-.3-1.8-.3-1.8 0zM720.5 1084.6c-21 3.7-46.2 6.3-62.5 6.5-16.8.2-16.7.1-7.2 9.1 8.6 8 22.8 19.6 32.7 26.7l6 4.3 7.5-7.9c11.4-12 32.2-38.6 30.9-39.6-.2-.1-3.5.3-7.4.9zM932 1084.9c-4.5 3.4-30.3 18.6-42 24.8-10 5.4-33.7 16.6-41 19.5-2.4 1-2.5 1-.4 1.8 5.5 2.1 39.4 6 53 6h6.1l7.6-12.8c6.6-11 20.7-38.7 20.7-40.6 0-1.1-1.4-.6-4 1.3zM200 1087.4c0 1.2 13.8 19.1 21.3 27.7 12.9 14.6 16 17.4 25.7 23.4 9.4 5.8 37.7 20.5 39.4 20.5 1.7 0-1.9-3.1-11.6-10.1-19-13.6-39.1-30-60.3-49.4-12.2-11.2-14.5-13-14.5-12.1zM1070.3 1098c-17.1 16.4-46.1 40-69 56-3.5 2.4-6.1 4.6-5.8 4.8.8.8 23.3-10.5 36.9-18.6 11.1-6.6 14.1-9 21.7-17.2 4.9-5.2 12.7-14.5 17.4-20.5 14.1-18 13.8-19-1.2-4.5zM500 1115.5c0 .9 12.6 17.7 18.9 25.3 10.1 12.2 17.3 19.2 19.5 19.2 5.1 0 51.3-25 50.1-27.1-.4-.5-1.8-.9-3.3-.9-11.4 0-61.8-10.1-83.4-16.6-1-.3-1.8-.2-1.8.1zM780.9 1115.4c-.9.9-32.6 8.5-45.9 11.1-7.4 1.4-19.7 3.4-27.3 4.4-7.5 1-13.9 2-14.2 2.3-1.6 1.6 46.1 26.8 50.8 26.8 1.8 0 4.7-2.6 11.9-10.8 13.5-15.4 27.8-34.2 26-34.2-.5 0-1.1.2-1.3.4zM257.6 1120.2c2.1 3.6 16.3 21.3 22.9 28.7 10.5 11.7 14.8 14.4 33.9 20.6 14.1 4.6 29.6 8.8 29.6 8 0-.1-5.6-3.5-12.4-7.4-17.5-10.1-42.5-26.8-59.9-39.9-8.2-6.2-14.5-10.7-14.1-10zM1017 1126.1c-17 13.4-48.2 34.3-67.9 45.6-8.4 4.8-9.1 5.4-5.7 4.8 6-1 27.1-7.3 35.7-10.6 10-3.9 14.1-6.9 23.4-17.6 10.1-11.4 22.5-27.4 21.3-27.3-.2 0-3.2 2.3-6.8 5.1zM1046.3 1133.6l-2.8 2.6 3.3-2.2c2.9-2 3.9-3 2.8-3-.3 0-1.8 1.2-3.3 2.6zM439.9 1133.9c3.5 6.4 26.2 34.2 34.4 42l3.6 3.4 11.8-2.8c18.2-4.3 45.3-13.5 45.3-15.4 0-.5-1.7-1.2-3.7-1.5-17.1-3.1-54.7-14-77.3-22.6-7.3-2.8-13.6-5-14.1-5-.6 0-.6.8 0 1.9zM835.5 1134.6c-18 7.4-50.7 17.5-72 22.3-18 4.1-17.6 3.9-14.5 5.7 4.2 2.3 34.8 12 45.8 14.5l10.4 2.3 6.4-6.9c13.8-15 33.5-40.6 31.2-40.4-.7 0-4 1.2-7.3 2.5zM314.7 1134.2c.6.7 3.6 4.8 6.7 9.1 7.2 9.8 15.8 20.1 24.5 29.3 6.5 6.9 7 7.2 13.2 8.3 16 2.7 51.9 5.6 51.9 4.1 0-.4-1.7-1.2-3.7-1.9-16.4-5.8-80.7-40.5-90.4-48.8-2-1.6-3.5-1.7-2.2-.1zM595 1133.4c0 .3 4.6 4.6 10.3 9.6 13.7 12.3 33.3 27 35.9 27 3.5 0 32.4-22.6 42.8-33.5l3.5-3.6-4.5.8c-5.7 1-74.6 1.1-82.2 0-3.2-.4-5.8-.5-5.8-.3zM963.7 1136.2c-12.4 9-58.9 34.2-81.7 44.3-4.7 2.1-8.8 4-9.2 4.4-1.8 1.6 30.2-.8 47.2-3.6 7.6-1.2 10.1-2.1 12.4-4.2 7.4-6.8 35.5-41.5 34.5-42.5-.2-.3-1.7.5-3.2 1.6zM377.9 1140.9c3.4 6.3 26.2 34.1 34 41.6 3.2 2.9 3.3 3 13.4 2.7 15.6-.4 47.9-4.1 49.5-5.7.2-.1-3.4-1.5-8-3-24.3-8-56.1-21.1-78.8-32.5-5.5-2.7-10.2-5-10.5-5-.3 0-.1.8.4 1.9zM887.5 1147.6c-20.7 10.2-41 18.6-63 26-9.1 3.1-16.4 5.9-16.1 6.1 2 2.1 56.2 7 59.2 5.4 2.5-1.3 19-20.2 27.6-31.6 5-6.6 9.6-12.6 10.1-13.3 1.6-2.1-.3-1.3-17.8 7.4zM547.5 1170.6c9.7 9.2 29.2 24.7 35.3 28.2l3.9 2.1 17.9-8.9c18.4-9.1 34.4-18.5 34.4-20.1 0-.5-3.9-.9-8.7-.9-17.5 0-53.7-3.4-75.4-7-18-3.1-17.8-3.2-7.4 6.6zM731 1163.5c-17.2 3.5-60 7.5-79.2 7.5-4.2 0-7.9.4-8.2.8-.8 1.3 19.7 13.3 37.2 21.9l15.4 7.5 6.6-4.5c9.1-6.3 23.2-17.6 33.3-26.9l8.4-7.8-3.5.1c-1.9.1-6.4.7-10 1.4zM276 1165.4c0 .3 3.3 2.7 7.3 5.4 8.2 5.5 10.7 7 9.2 5.5-1.6-1.6-16.5-11.4-16.5-10.9zM298.1 1167.2c1.5 1.3 6 5.3 10 8.9 9.1 8.2 29 23.3 33.8 25.5 11.1 5.3 51.4 17.5 52.8 16 .3-.3-3.2-2.2-7.8-4.3-16.9-7.4-50.9-25.2-68.9-36-19.3-11.7-24.7-14.4-19.9-10.1zM983.5 1165.9c-.6.6-9.3 6-19.4 12-17.8 10.7-53.5 29.3-69.4 36.2-4.4 1.8-7.4 3.5-6.9 3.7 2.5.8 37.9-9.7 50.1-15 6-2.5 18.4-11.4 32.1-22.9 12.1-10.2 17-14.9 15.4-14.9-.6 0-1.4.4-1.9.9zM488 1189c8 7.6 22.7 19.5 33.2 27l4.7 3.3 11.8-2.8c11.8-2.7 34.2-9.8 42.5-13.4l4.3-1.8-6-.8c-25.8-3-51.7-7.8-76.5-14.1-9.6-2.4-18.6-4.6-20-5-1.9-.4-.3 1.5 6 7.6zM799.9 1181.4c-.9 1-31.9 8.5-46.9 11.5-14.3 2.9-34.2 6-48.2 7.7-3.2.3-5.6 1-5.3 1.4.8 1.3 36 12.6 46.8 15l9.8 2.3 6.7-4.6c14.7-10 42.1-33.6 39.1-33.7-.9 0-1.8.2-2 .4zM366 1192.2c11.1 10.3 29.7 24.1 36 26.6 6.5 2.5 24 5.1 40 5.8l11.5.5-17.8-6.5c-20.6-7.5-47.9-19-65.2-27.5l-12-5.9 7.5 7zM917.5 1188.7c-16.9 8.8-49.3 22.5-73 30.9l-15 5.3h6.5c6.8.1 25.8-1.9 37.2-3.9 8.1-1.4 14.6-5.2 29-16.8 10.6-8.4 21.7-18.1 20.8-18.1-.3 0-2.7 1.2-5.5 2.6zM424 1194.1c8.2 7.6 23.4 20 32.3 26.3l6.9 4.9 16.1-.6c13.8-.5 42.2-3.8 43.4-5 .2-.3-2.5-1-5.9-1.6-20.8-4.1-59.4-15.5-85.2-25.2-7.1-2.7-13.2-4.9-13.5-4.9-.3.1 2.3 2.8 5.9 6.1zM855.1 1191.6c-20.2 8.2-53.6 18.4-81.1 24.8l-14.4 3.3 6.9 1.2c13.5 2.4 31.1 4.1 42.1 4.1h11.1l8.4-6c12.7-9.1 36.7-29.6 35.7-30.5-.2-.2-4.1 1.3-8.7 3.1zM942.8 1202.6c-3.8 2-3.6 2.8.2.9 1.7-.9 3-1.8 3-2 0-.7-.1-.6-3.2 1.1zM588 1202.3c0 1.5 29.4 17.8 43.7 24.3l9.5 4.2 4.6-1.9c9.6-4.1 30-14.8 39.7-20.8l10-6.2-15 .8c-19.4 1-59 1-77.7 0-8.2-.5-14.8-.6-14.8-.4zM537.5 1226.6c5 3 16.8 9.4 26.2 14.1l17.2 8.6 12.8-3.1c13.3-3.3 33.6-9.6 41.3-12.9l4.5-2-20.5-.6c-25.8-.8-54.5-3.8-79-8.2-4.7-.8-9.2-1.5-10-1.5-.8 0 2.6 2.5 7.5 5.6zM739.5 1223.1c-23.9 4.3-62.6 7.9-84.8 7.9-6.9 0-10.7.4-10.2.9 1.7 1.7 27.2 9.9 42 13.6l14.4 3.7 9.3-4.2c12.7-5.7 42.8-22.3 42.8-23.6 0-.6-2.7-.3-13.5 1.7zM407.7 1223.8c4.5 3.4 26.2 15.3 37.2 20.3 9 4.1 13.6 5.5 22.4 7 17.6 2.9 47.2 5.1 45.5 3.4-.2-.3-8.8-2.5-18.9-5-27.3-6.8-49.5-13.6-75.2-23.1-13.1-4.9-14.2-5.1-11-2.6zM866.5 1225.6c-23.6 9-56.6 19.2-81.4 25-7.9 1.8-14.6 3.6-14.9 3.9-1.8 1.8 32.2-1 48.8-4 7-1.3 11.7-3.2 26.5-10.5 16.5-8.2 33.4-18 31-17.9-.5 0-5 1.6-10 3.5zM476 1233.4c3 2 13.3 7.5 22.8 12.4l17.3 8.7 15.2-.1c13.1 0 44.3-3.1 41.2-4-.5-.2-9.1-1.5-18.9-2.9-25.4-3.6-63.5-11.7-81.6-17.2-.8-.3 1 1.1 4 3.1zM804 1232.1c-19.4 5.7-56.4 13.2-81.4 16.4-6.6.9-12.2 1.8-12.4 1.9-.1.2 3.2.9 7.5 1.5 15.5 2.2 31.9 3.3 40.3 2.8 7.6-.4 9.7-1 19.1-5.4 12.8-6.1 37.7-20.2 33.9-19.2-.3.1-3.4 1-7 2zM599 1255.5c14.5 5.5 34.5 10.5 42 10.5 3.6 0 10.2-.9 14.8-2 9.8-2.4 36.6-11 35.9-11.6-.2-.2-9.6.1-20.8.7-18.7 1-53.1.8-73.4-.6l-8-.5 9.5 3.5zM750.9 1257.4c-.6.6-34.1 5.3-46.9 6.5-14.1 1.5-40.7 3.1-49.7 3.1-8.5 0-9.7 1.4-2 2.4 19.9 2.6 31.8 3.6 42.2 3.6 10.4 0 13.8-.5 25.5-3.4 11.8-3 36.7-11 37.9-12.2.2-.2-1.1-.4-3.1-.4-1.9 0-3.7.2-3.9.4zM635.3 1279.7c3.2.2 8.1.2 11 0 2.9-.2.3-.3-5.8-.3-6 0-8.4.1-5.2.3z"/></svg>